<?xml version="1.0" standalone="no"?>
<!DOCTYPE svg PUBLIC "-//W3C//DTD SVG 1.1//EN" "http://www.w3.org/Graphics/SVG/1.1/DTD/svg11.dtd" >
<svg xmlns="http://www.w3.org/2000/svg">
<metadata></metadata>
<defs>
<font id="dincomp-bolditaregular" horiz-adv-x="1056" >
<font-face units-per-em="2048" ascent="1565" descent="-483" />
<missing-glyph horiz-adv-x="450" />
<glyph unicode="&#xfb01;" horiz-adv-x="1179" d="M68 0l168 840h-105l39 194h104l31 148q29 141 115 217t233 76h150l-43 -215h-90q-96 0 -117 -105l-25 -121h189l-39 -194h-189l-167 -840h-254zM680 0l207 1034h254l-207 -1034h-254zM924 1243l41 211h262l-43 -211h-260z" />
<glyph unicode="&#xfb02;" horiz-adv-x="1286" d="M68 0l168 840h-105l39 194h104l31 148q29 141 115 217t233 76h150l-43 -215h-90q-96 0 -117 -105l-25 -121h189l-39 -194h-189l-167 -840h-254zM733 231q0 49 8 88l227 1139h254l-227 -1136q-4 -14 -5 -23.5t-1 -22.5q0 -61 78 -61h104l-43 -215h-139q-111 0 -183.5 60.5 t-72.5 170.5z" />
<glyph horiz-adv-x="0" />
<glyph unicode="&#xd;" horiz-adv-x="450" />
<glyph unicode=" "  horiz-adv-x="450" />
<glyph unicode="&#x09;" horiz-adv-x="450" />
<glyph unicode="&#xa0;" horiz-adv-x="450" />
<glyph unicode="!" horiz-adv-x="675" d="M139 0l54 272h268l-53 -272h-269zM264 455l135 1003h314l-258 -1003h-191z" />
<glyph unicode="&#x22;" horiz-adv-x="903" d="M233 1026l86 432h238l-86 -432h-238zM633 1026l88 432h237l-88 -432h-237z" />
<glyph unicode="#" horiz-adv-x="1363" d="M88 0l139 397h-137l47 234h172l84 237h-145l47 234h178l129 368h270l-129 -368h234l129 368h270l-129 -368h135l-47 -234h-168l-84 -237h144l-47 -234h-179l-139 -397h-270l139 397h-233l-140 -397h-270zM578 631h233l84 237h-233z" />
<glyph unicode="$" horiz-adv-x="1216" d="M-6 190l196 175q109 -129 297 -136l76 394l-59 16q-94 25 -154.5 62.5t-95.5 82.5t-48 95.5t-13 99.5q0 96 33.5 182t97 151.5t156.5 106.5t214 51l37 181h197l-35 -187q111 -10 200 -53t152 -121l-190 -166q-47 57 -104.5 80t-129.5 27l-71 -379l53 -14 q180 -45 255 -133.5t75 -233.5q0 -129 -47.5 -218t-123 -145.5t-168 -85t-180.5 -34.5l-43 -221h-196l41 225q-141 8 -240.5 55t-181.5 143zM463 1014q0 -63 44 -93t103 -44l68 356q-92 -12 -153.5 -73.5t-61.5 -145.5zM633 227q100 16 164.5 71.5t64.5 137.5t-43 114 t-117 48z" />
<glyph unicode="%" horiz-adv-x="1671" d="M193 932q0 14 1 31.5t5 33.5l37 195q29 145 109.5 211.5t209.5 66.5q49 0 93 -13t79 -40.5t55.5 -70t20.5 -101.5q0 -14 -1 -31.5t-5 -33.5l-37 -195q-29 -145 -110 -211.5t-210 -66.5q-49 0 -93 13t-79 40.5t-55 69.5t-20 102zM301 0l948 1458h205l-948 -1458h-205z M377 954q0 -31 17.5 -57.5t66.5 -26.5q53 0 79.5 35t37.5 84l36 191q4 20 4 43q0 31 -17 57.5t-66 26.5q-53 0 -80 -35t-37 -84l-37 -191q-4 -20 -4 -43zM952 213q0 14 1 31.5t5 34.5l37 194q29 145 110 212t210 67q49 0 93 -13.5t79 -41t55.5 -70t20.5 -101.5 q0 -14 -1 -31.5t-6 -33.5l-36 -195q-29 -145 -110 -211.5t-210 -66.5q-49 0 -93 13t-79 41t-55.5 70t-20.5 101zM1137 236q0 -31 17 -57.5t67 -26.5q53 0 79.5 34.5t36.5 83.5l37 191q4 20 4 43q0 31 -17.5 57.5t-66.5 26.5q-53 0 -79.5 -35t-36.5 -84l-37 -190 q-4 -20 -4 -43z" />
<glyph unicode="&#x26;" horiz-adv-x="1413" d="M88 350q0 94 26.5 167t74 129t108.5 103.5t133 90.5l-8 12q-37 61 -59.5 116.5t-22.5 125.5q0 55 19.5 121.5t66.5 123t127 94t203 37.5q106 0 171.5 -32.5t99.5 -80.5t45 -100.5t11 -91.5q0 -92 -55 -167.5t-147 -135.5l-117 -76l178 -288q47 47 77 110.5t46 139.5h242 q-29 -141 -86.5 -249t-151.5 -202l195 -297h-310l-80 125q-68 -53 -166 -95t-225 -42q-74 0 -144.5 18.5t-125.5 61.5t-90 112.5t-35 169.5zM342 387q0 -76 47 -124t125 -48q61 0 123.5 27.5t116.5 72.5l-215 344q-90 -53 -143.5 -116.5t-53.5 -155.5zM598 1096 q0 -35 16.5 -70t38.5 -70l66 41q53 35 87 70t34 88q0 47 -27 73.5t-70 26.5q-39 0 -66.5 -14t-45 -37.5t-25.5 -52.5t-8 -55z" />
<glyph unicode="'" horiz-adv-x="503" d="M233 1026l86 432h240l-86 -432h-240z" />
<glyph unicode="(" horiz-adv-x="653" d="M94 156q0 25 5 67.5t16 89.5l174 873q14 66 32.5 131t61.5 127q39 53 92 104t115 103l143 -189q-33 -29 -69.5 -62.5t-59.5 -64.5q-20 -29 -37.5 -67.5t-27.5 -93.5l-174 -869q-16 -82 -17 -123q0 -37 19.5 -85t78.5 -120l-192 -170q-49 59 -80 105.5t-48 87.5t-24.5 78 t-7.5 78z" />
<glyph unicode=")" horiz-adv-x="653" d="M2 -4q33 29 70 62.5t59 64.5q20 29 37.5 67.5t28.5 94.5l174 868q6 33 11 65.5t5 57.5q0 37 -19.5 85t-78.5 120l192 170q49 -59 80 -105.5t48.5 -87.5t24.5 -77.5t7 -77.5q0 -25 -5 -68t-15 -90l-175 -873q-14 -66 -32.5 -131t-61.5 -127q-39 -53 -92 -104t-115 -103z " />
<glyph unicode="*" horiz-adv-x="962" d="M199 1020l237 72l-192 155l116 131l179 -168l39 242l172 -33l-56 -241l228 88l59 -164l-238 -72l191 -156l-117 -131l-176 170l-41 -243l-172 32l57 242l-229 -88z" />
<glyph unicode="+" d="M86 467l47 235h311l68 336h236l-68 -336h313l-47 -235h-313l-66 -336h-237l67 336h-311z" />
<glyph unicode="," horiz-adv-x="555" d="M-25 -338l127 629h275l-80 -404z" />
<glyph unicode="-" horiz-adv-x="829" d="M104 467l48 235h600l-47 -235h-601z" />
<glyph unicode="." horiz-adv-x="555" d="M29 0l61 303h287l-60 -303h-288z" />
<glyph unicode="/" horiz-adv-x="788" d="M-135 -152l907 1762h244l-905 -1762h-246z" />
<glyph unicode="0" d="M82 338q0 20 3 49t7 51l119 594q25 125 76 210t117.5 135t142.5 71.5t149 21.5q82 0 149.5 -25.5t115 -72.5t73 -111.5t25.5 -140.5q0 -20 -3 -49t-7 -51l-117 -594q-25 -127 -76 -211t-117.5 -134t-142.5 -71.5t-150 -21.5q-84 0 -150.5 25.5t-114.5 72.5t-73.5 110.5 t-25.5 141.5zM334 356q0 -39 12 -65.5t30.5 -44t42 -24.5t48.5 -7q31 0 63.5 9t61.5 32t51.5 61.5t34.5 100.5l121 612q4 16 6 36t2 36q0 39 -12.5 65.5t-31 44t-42 24.5t-47.5 7q-31 0 -63.5 -9t-61.5 -31.5t-51.5 -61.5t-34.5 -101l-119 -612q-4 -16 -7 -35.5t-3 -36.5z " />
<glyph unicode="1" d="M281 928l57 293l332 237h254l-291 -1458h-254l233 1167z" />
<glyph unicode="2" d="M6 0l47 227l631 641q63 63 93 112.5t30 115.5q0 72 -37 109.5t-102 37.5q-70 0 -128.5 -42t-82.5 -148h-256q37 211 165 314t328 103q172 0 270.5 -94t98.5 -268q0 -68 -18.5 -124t-48 -102t-64.5 -85t-68 -72l-487 -498h536l-47 -227h-860z" />
<glyph unicode="3" d="M55 334q0 20 1 36.5t5 37.5h250q-4 -12 -4 -21v-25q0 -61 40 -104t124 -43q47 0 89 21.5t73 57.5t48 83t17 98q0 72 -38.5 116t-124.5 44h-39l43 221h41q45 0 85 20.5t67.5 54.5t44 77t16.5 88q0 72 -37 109.5t-101 37.5q-68 0 -127 -45t-82 -133h-256q47 207 177.5 306 t322.5 99q82 0 147.5 -26.5t111.5 -73.5t72 -109.5t26 -136.5q0 -117 -52.5 -218t-171.5 -161q68 -39 99.5 -98t31.5 -162q0 -104 -37.5 -195t-103 -157.5t-154 -105.5t-190.5 -39q-193 0 -303.5 94t-110.5 252z" />
<glyph unicode="4" d="M-6 213l47 240l674 1005h282l-671 -1005h288l56 270h241l-53 -270h133l-49 -240h-129l-43 -213h-242l41 213h-575z" />
<glyph unicode="5" d="M92 328v28q0 23 4 45h244q-2 -10 -2 -20v-21q0 -61 30.5 -103t104.5 -42q51 0 90 20.5t65.5 57.5t44 88t29.5 111q6 35 10.5 64.5t4.5 53.5q0 63 -26.5 106.5t-104.5 43.5q-74 0 -121 -36t-76 -85h-229l164 819h786l-45 -227h-559l-64 -324q47 39 97.5 53.5t111.5 14.5 q84 0 145.5 -27.5t101.5 -74t59.5 -106.5t19.5 -124q0 -35 -4 -76t-10 -75q-20 -104 -58.5 -204t-111.5 -173q-57 -57 -138.5 -92t-195.5 -35q-88 0 -155.5 25.5t-115 71.5t-72 108.5t-24.5 134.5z" />
<glyph unicode="6" d="M74 375q0 55 10 104t30.5 98.5t52.5 102.5t75 119l436 659h280l-415 -614q23 6 41 9t45 3q72 0 132 -26.5t103 -75.5t66.5 -119t23.5 -156q0 -104 -33.5 -194t-96 -157t-148.5 -103.5t-191 -36.5q-111 0 -188.5 34.5t-127.5 91t-72.5 125t-22.5 136.5zM328 397 q0 -86 43 -134t116 -48q51 0 90 21.5t67 57.5t42 82t14 95q0 86 -44 133t-117 47q-53 0 -93 -22.5t-66 -59.5t-39 -82t-13 -90z" />
<glyph unicode="7" d="M160 0l682 1231h-369l-45 -223h-242l88 450h895l-45 -227l-684 -1231h-280z" />
<glyph unicode="8" d="M59 369q0 127 62.5 231.5t187.5 167.5q-41 35 -73.5 94.5t-32.5 157.5q0 92 33.5 174t96 143.5t149.5 97t194 35.5q84 0 155.5 -26.5t124 -75.5t81 -118.5t28.5 -155.5q0 -119 -63.5 -216.5t-159.5 -144.5q20 -16 42.5 -39.5t39 -56.5t28 -75t11.5 -97q0 -98 -33 -184 t-96.5 -152t-156.5 -103.5t-214 -37.5q-82 0 -156 22.5t-129 69.5t-87 118.5t-32 170.5zM315 389q0 -72 43 -123t121 -51q49 0 90 18.5t72 51t47.5 79t16.5 99.5q0 72 -42 123t-120 51q-49 0 -91 -18.5t-72 -52.5t-47.5 -79t-17.5 -98zM457 1012q0 -63 36.5 -108.5 t108.5 -45.5q45 0 84 18.5t65.5 50t42 72.5t15.5 88q0 63 -37 109.5t-108 46.5q-47 0 -85 -18.5t-65 -51t-42 -74.5t-15 -87z" />
<glyph unicode="9" d="M184 0l416 614q-23 -6 -41 -9t-45 -3q-72 0 -132 26.5t-103 76t-67 119t-24 155.5q0 104 34 194.5t96.5 157t148.5 103t190 36.5q111 0 189 -34.5t128 -91t72.5 -125t22.5 -136.5q0 -55 -10 -104t-30.5 -98.5t-52.5 -102.5t-75 -119l-438 -659h-279zM442 987 q0 -86 44 -133t118 -47q53 0 93 22.5t65.5 59.5t39 82t13.5 90q0 86 -44 134t-118 48q-51 0 -90 -21.5t-65.5 -57.5t-41 -82t-14.5 -95z" />
<glyph unicode=":" horiz-adv-x="602" d="M78 0l61 303h289l-61 -303h-289zM186 555l62 303h287l-60 -303h-289z" />
<glyph unicode=";" horiz-adv-x="602" d="M16 -338l127 629h277l-80 -404zM186 555l62 303h289l-62 -303h-289z" />
<glyph unicode="&#x3c;" d="M90 492l45 217l873 381l-56 -283l-540 -223l454 -240l-51 -260z" />
<glyph unicode="=" d="M45 252l49 235h862l-49 -235h-862zM129 682l49 236h862l-47 -236h-864z" />
<glyph unicode="&#x3e;" d="M68 78l55 282l541 224l-455 239l53 260l723 -409l-45 -217z" />
<glyph unicode="?" horiz-adv-x="1017" d="M233 1073q18 104 62.5 179t109 124t145.5 71.5t173 22.5q66 0 127 -22.5t108.5 -63.5t75 -102t27.5 -137q0 -104 -40 -183t-112 -157l-182 -203q-16 -18 -33.5 -47t-23.5 -57l-11 -43h-253l14 63q12 59 36.5 110.5t75.5 104.5l181 193q39 41 65.5 87t26.5 105 q0 51 -31 88t-90 37q-82 0 -130 -46t-65 -124h-256zM317 0l54 272h268l-53 -272h-269z" />
<glyph unicode="@" horiz-adv-x="1478" d="M66 219q0 35 4 71t8 58l121 615q27 135 67.5 224t102.5 150q129 129 401 129h301q117 0 192.5 -31.5t122.5 -82.5q49 -53 66.5 -119t17.5 -125q0 -31 -6 -76t-12 -80l-190 -952h-232l19 94q-57 -59 -114.5 -82.5t-127.5 -23.5q-72 0 -126 22.5t-90 60.5t-53.5 88 t-17.5 103q0 41 7.5 90t21.5 119q14 68 27.5 124t31 104.5t42 87t61.5 73.5q55 53 120.5 74.5t135.5 21.5q78 0 133 -27.5t90 -76.5l20 109q10 51 11 88q0 82 -43 131q-55 61 -174 61h-242q-72 0 -122 -15.5t-91 -51.5q-51 -43 -72.5 -95.5t-34.5 -117.5l-120 -605 q-4 -20 -7.5 -41.5t-3.5 -48.5q0 -55 54 -116l-199 -173q-59 66 -79.5 127.5t-20.5 114.5zM774 336q0 -53 27.5 -95t93.5 -42q94 0 142 65.5t77 206.5q16 76 16 137q0 53 -27.5 95t-92.5 42q-94 0 -142.5 -66.5t-76.5 -207.5q-16 -76 -17 -135z" />
<glyph unicode="A" horiz-adv-x="1243" d="M-94 0l794 1458h215l215 -1458h-274l-31 266h-493l-137 -266h-289zM442 487h363l-70 562z" />
<glyph unicode="B" horiz-adv-x="1282" d="M57 0l293 1458h529q100 0 171.5 -27.5t117.5 -74.5t67.5 -108.5t21.5 -127.5q0 -49 -11 -102t-38.5 -103.5t-72.5 -95.5t-115 -80q63 -41 101 -97t38 -159q0 -111 -38 -199.5t-103.5 -151t-155.5 -97.5t-194 -35h-611zM377 240h282q106 0 167 66.5t61 164.5q0 66 -38 108 t-116 42h-280zM500 860h260q59 0 102 20.5t69.5 52.5t39 69.5t12.5 72.5q0 25 -6 50.5t-23.5 46t-47 34t-75.5 13.5h-258z" />
<glyph unicode="C" horiz-adv-x="1212" d="M109 401q0 47 8 126t35 202q20 106 39.5 190.5t43 153t55.5 124.5t79 108q84 88 192.5 126.5t218.5 38.5q113 0 196 -34.5t138 -96t82 -143.5t27 -176h-271q0 45 -11 84t-33.5 67.5t-58.5 45t-87 16.5q-66 0 -111 -22.5t-84 -61.5q-23 -23 -41 -54.5t-34.5 -79.5 t-34 -118t-35.5 -168q-16 -92 -28.5 -173t-12.5 -134q0 -94 55.5 -145.5t138.5 -51.5q53 0 97.5 18.5t78 48.5t57 67.5t38.5 78.5h278q-74 -227 -224 -338.5t-345 -111.5q-104 0 -187 31.5t-140.5 88t-88 132t-30.5 161.5z" />
<glyph unicode="D" horiz-adv-x="1282" d="M57 0l293 1458h477q90 0 169 -23.5t137.5 -73.5t91 -127t32.5 -183q0 -25 -2 -50.5t-7 -61.5t-14 -85t-24 -119q-27 -133 -48 -225t-46.5 -158.5t-58.5 -115t-80 -93.5q-150 -143 -402 -143h-518zM377 238h205q131 0 213 79q23 20 40 50t34.5 77.5t34 117t36.5 173.5 q25 127 35 192.5t10 100.5q0 98 -55.5 145.5t-149.5 47.5h-207z" />
<glyph unicode="E" horiz-adv-x="1183" d="M57 0l293 1458h910l-48 -237h-639l-73 -367h551l-47 -238h-551l-76 -378h651l-47 -238h-924z" />
<glyph unicode="F" horiz-adv-x="1146" d="M57 0l293 1458h910l-48 -237h-639l-75 -381h546l-47 -238h-548l-121 -602h-271z" />
<glyph unicode="G" horiz-adv-x="1261" d="M109 401q0 125 43 328q27 129 47 216t43.5 151.5t54.5 111.5t76 97q80 86 190.5 125.5t220.5 39.5q113 0 197 -34.5t140.5 -96t84 -144.5t27.5 -181h-270q-4 100 -52.5 159.5t-142.5 59.5q-63 0 -109.5 -21.5t-87.5 -62.5q-27 -27 -46 -61.5t-35.5 -84t-33 -116 t-34.5 -158.5q-20 -92 -30.5 -173t-10.5 -134q0 -94 56.5 -145.5t140.5 -51.5q98 0 184 73t115 220l12 64h-254l41 225h524l-39 -209q-29 -147 -74 -252.5t-126 -193.5q-78 -80 -180.5 -122t-223.5 -42q-113 0 -197 33.5t-140 91t-83.5 132t-27.5 156.5z" />
<glyph unicode="H" horiz-adv-x="1333" d="M57 0l293 1458h271l-119 -602h469l119 602h270l-293 -1458h-270l125 618h-469l-125 -618h-271z" />
<glyph unicode="I" horiz-adv-x="593" d="M57 0l293 1458h271l-293 -1458h-271z" />
<glyph unicode="J" horiz-adv-x="993" d="M-61 145l194 166q33 -41 75 -63.5t103 -22.5q35 0 75 11.5t76 40t65.5 77.5t43.5 123l197 981h270l-200 -997q-31 -147 -93.5 -240.5t-138.5 -144.5t-156.5 -69.5t-144.5 -18.5q-135 0 -220 40t-146 117z" />
<glyph unicode="K" horiz-adv-x="1302" d="M57 0l293 1458h268l-129 -635l613 635h336l-576 -608l334 -850h-295l-256 674l-231 -225l-88 -449h-269z" />
<glyph unicode="L" horiz-adv-x="1126" d="M57 0l293 1458h271l-244 -1220h635l-47 -238h-908z" />
<glyph unicode="M" horiz-adv-x="1576" d="M57 0l293 1458h254l207 -778l528 778h265l-293 -1458h-271l174 862l-366 -538h-182l-164 542l-174 -866h-271z" />
<glyph unicode="N" horiz-adv-x="1386" d="M57 0l293 1458h230l381 -913l182 913h270l-293 -1458h-229l-379 911l-184 -911h-271z" />
<glyph unicode="O" horiz-adv-x="1251" d="M109 401q0 49 8 127t33 201q20 106 39.5 190.5t43 153t55 124.5t79.5 106q86 92 193.5 129.5t217.5 37.5q104 0 186.5 -32.5t138.5 -89t86 -131t30 -160.5q0 -49 -8.5 -127t-32.5 -201q-20 -106 -40 -190t-43.5 -153t-55 -125t-78.5 -105q-86 -92 -194 -130t-218 -38 q-104 0 -186 32.5t-138.5 89t-86 131t-29.5 160.5zM379 424q0 -98 56.5 -148.5t131.5 -50.5q115 0 195 88q20 23 37.5 52.5t35 76.5t35 117t37.5 170q18 92 29.5 172t11.5 133q0 98 -55 148.5t-133 50.5q-115 0 -195 -88q-20 -23 -37.5 -52.5t-35 -77.5t-35 -117t-37.5 -169 q-18 -92 -29.5 -172t-11.5 -133z" />
<glyph unicode="P" horiz-adv-x="1222" d="M57 0l293 1458h518q92 0 165 -28.5t123 -79t77 -121t27 -156.5q0 -98 -35 -189t-103.5 -162t-169 -114t-231.5 -43h-281l-112 -565h-271zM489 805h242q66 0 114 22.5t79.5 58.5t47 80t15.5 85q0 70 -37 119t-127 49h-250z" />
<glyph unicode="Q" horiz-adv-x="1251" d="M109 401q0 49 8 127t33 201q20 106 39.5 190.5t43 153t55 124.5t79.5 106q86 92 193.5 129.5t217.5 37.5q104 0 186.5 -32.5t138.5 -89t86 -131t30 -160.5q0 -49 -8.5 -127t-32.5 -201q-18 -96 -36 -175t-39.5 -144.5t-48 -118.5t-63.5 -101l99 -129l-162 -143l-103 133 q-66 -35 -135 -49t-141 -14q-104 0 -186 32.5t-138.5 89t-86 131t-29.5 160.5zM379 424q0 -98 56.5 -148.5t131.5 -50.5q63 0 109 23l-109 143l162 144l92 -123q23 47 42.5 122.5t43.5 194.5q18 92 29.5 172t11.5 133q0 98 -55 148.5t-133 50.5q-115 0 -195 -88 q-20 -23 -37.5 -52.5t-35 -77.5t-35 -117t-37.5 -169q-18 -92 -29.5 -172t-11.5 -133z" />
<glyph unicode="R" horiz-adv-x="1280" d="M57 0l293 1458h512q111 0 186.5 -32.5t123 -86t68 -125t20.5 -147.5q0 -68 -21.5 -135.5t-63.5 -127t-105.5 -107.5t-149.5 -76l200 -621h-297l-170 590h-204l-121 -590h-271zM492 815h245q70 0 118 23.5t78 59.5t43 77t13 78q0 78 -43 122t-127 44h-246z" />
<glyph unicode="S" horiz-adv-x="1153" d="M-6 188l196 172q59 -70 137.5 -101.5t182.5 -31.5q61 0 113.5 16.5t91.5 45t61.5 66.5t22.5 83q0 78 -42 112t-112 50l-121 31q-180 45 -255.5 139t-75.5 207q0 104 38.5 194.5t112.5 157t180.5 104t239.5 37.5q129 0 237.5 -43t180.5 -133l-191 -166q-47 57 -109.5 82 t-148.5 25q-63 0 -113.5 -19.5t-85 -51t-53 -71.5t-18.5 -79q0 -35 12 -58.5t33.5 -40t50.5 -26.5t59 -19l121 -28q180 -45 255 -134.5t75 -244.5q0 -123 -48 -213t-129 -148.5t-186.5 -86t-220.5 -27.5q-172 0 -285.5 46t-205.5 154z" />
<glyph unicode="T" horiz-adv-x="1114" d="M197 1219l47 239h995l-47 -239h-358l-244 -1219h-271l244 1219h-366z" />
<glyph unicode="U" horiz-adv-x="1300" d="M127 403q0 29 5 66t9 59l187 930h270l-190 -946q-4 -16 -7.5 -43t-3.5 -47q0 -37 11.5 -73t34 -62.5t59.5 -43t88 -16.5q117 0 194.5 77t106.5 222l186 932h271l-193 -958q-27 -135 -83 -231.5t-134 -159t-172 -92t-195 -29.5q-92 0 -174 28.5t-141 82t-94 131t-35 173.5 z" />
<glyph unicode="V" horiz-adv-x="1130" d="M193 1458h266l98 -966l467 966h291l-744 -1458h-213z" />
<glyph unicode="W" horiz-adv-x="1732" d="M195 1458h278l33 -932l442 932h203l72 -932l393 932h287l-652 -1458h-227l-76 897l-442 -897h-225z" />
<glyph unicode="X" horiz-adv-x="1185" d="M-90 0l573 758l-270 700h301l162 -479l334 479h315l-541 -721l293 -737h-303l-180 518l-369 -518h-315z" />
<glyph unicode="Y" horiz-adv-x="1126" d="M182 1458h287l156 -604l376 604h299l-585 -870l-119 -588h-270l120 598z" />
<glyph unicode="Z" horiz-adv-x="1077" d="M-25 0l45 215l777 1004h-564l48 239h897l-43 -211l-783 -1007h594l-49 -240h-922z" />
<glyph unicode="[" horiz-adv-x="735" d="M20 -152l351 1762h491l-45 -228h-237l-263 -1306h258l-45 -228h-510z" />
<glyph unicode="\" horiz-adv-x="774" d="M211 1583h231l199 -1735h-229z" />
<glyph unicode="]" horiz-adv-x="735" d="M-45 -152l45 226h240l262 1310h-258l45 226h508l-351 -1762h-491z" />
<glyph unicode="^" horiz-adv-x="1189" d="M176 797l483 676h250l213 -676h-254l-127 405l-288 -405h-277z" />
<glyph unicode="_" d="M-176 -354l33 168h1056l-32 -168h-1057z" />
<glyph unicode="`" horiz-adv-x="1054" d="M424 1573h242l92 -342h-187z" />
<glyph unicode="a" horiz-adv-x="1042" d="M23 270q0 78 24.5 141.5t71.5 110.5q59 59 139 85t172 26h254l14 63q4 16 5.5 27.5t1.5 28.5q0 53 -39 83.5t-119 30.5q-78 0 -133.5 -27.5t-96.5 -72.5l-131 170q66 66 156 104.5t240 38.5q68 0 135 -14t121.5 -49t88.5 -91.5t34 -142.5q0 -47 -11 -94l-139 -688h-244 l19 94q-45 -45 -107.5 -74.5t-150.5 -29.5q-141 0 -223 78.5t-82 201.5zM272 295q0 -45 33 -72.5t103 -27.5q53 0 95 18t70 47q25 25 40.5 59.5t23.5 75.5l12 64h-194q-86 0 -134.5 -46t-48.5 -118z" />
<glyph unicode="b" horiz-adv-x="1091" d="M37 0l291 1458h254l-97 -483q37 43 99.5 73.5t148.5 30.5q59 0 112.5 -17.5t93.5 -55t63.5 -96t23.5 -140.5q0 -35 -7 -95.5t-24 -139.5q-29 -152 -63.5 -261.5t-108.5 -183.5q-53 -53 -123.5 -77.5t-148.5 -24.5q-92 0 -152.5 30.5t-95.5 90.5l-20 -109h-246zM375 362 q0 -25 4 -50t18.5 -46.5t40 -36t66.5 -14.5q57 0 96 22.5t65.5 64.5t44 100.5t31.5 132.5q8 41 15.5 88t7.5 82q0 25 -5 50t-18.5 46.5t-39 36t-66.5 14.5q-57 0 -96 -22.5t-66 -63.5t-44 -99.5t-32 -131.5q-8 -41 -15 -89.5t-7 -83.5z" />
<glyph unicode="c" horiz-adv-x="937" d="M76 369q0 78 16 166q31 162 88.5 267t131 166.5t157.5 86t166 24.5q117 0 191.5 -43t121.5 -104l-190 -168q-31 41 -66 64.5t-82 23.5q-86 0 -151 -68q-41 -43 -70 -108.5t-43 -140.5q-6 -35 -10 -68t-4 -70q0 -86 39 -134t112 -48q53 0 97.5 22.5t89.5 67.5l141 -182 q-68 -63 -158 -99t-194 -36q-76 0 -145.5 24.5t-122 71.5t-84 118.5t-31.5 166.5z" />
<glyph unicode="d" horiz-adv-x="1091" d="M70 287q0 53 9 114.5t23 133.5q33 166 71 272t99 168q61 61 130 82.5t141 21.5t136 -26.5t105 -87.5l99 493h254l-291 -1458h-246l23 102q-53 -61 -121 -87.5t-144 -26.5q-84 0 -140 27.5t-89 70.5t-46 96.5t-13 104.5zM334 362q0 -25 4 -50t17.5 -46.5t39 -36 t66.5 -14.5q57 0 96 22.5t65.5 64.5t44 100.5t31.5 132.5q8 41 15.5 89t7.5 83q0 25 -4 50t-17.5 46.5t-39 35t-66.5 13.5q-57 0 -96 -22.5t-65.5 -63.5t-44 -99.5t-32.5 -131.5q-8 -41 -15 -89.5t-7 -83.5z" />
<glyph unicode="e" horiz-adv-x="1071" d="M74 362q0 135 32.5 263.5t100 229.5t169 162.5t240.5 61.5q84 0 154 -26.5t120 -76.5t77.5 -121t27.5 -157q0 -53 -9 -116.5t-23 -124.5h-639q-4 -18 -6.5 -38t-2.5 -38q0 -78 45.5 -128t137.5 -50q78 0 138 27.5t116 80.5l133 -168q-84 -78 -189.5 -116.5t-226.5 -38.5 q-70 0 -140.5 19.5t-127 63.5t-92 115.5t-35.5 175.5zM356 627h392q6 32 6 71q0 86 -42 129t-110 43q-82 0 -146.5 -56t-99.5 -187z" />
<glyph unicode="f" horiz-adv-x="665" d="M68 0l168 840h-105l39 194h104l31 148q29 141 115 217t233 76h150l-43 -215h-90q-96 0 -117 -105l-25 -121h189l-39 -194h-189l-167 -840h-254z" />
<glyph unicode="g" horiz-adv-x="1079" d="M-25 -258l177 154q25 -29 63.5 -56.5t114.5 -27.5q106 0 171.5 63.5t88.5 167.5l22 109q-41 -49 -99 -78t-138 -29q-59 0 -112.5 18.5t-94.5 56.5t-64.5 94t-23.5 132q0 39 7 94.5t19 122.5q29 154 64 251t96 159q59 59 130 82.5t143 23.5q168 0 241 -121l21 109h246 l-205 -1026q-23 -117 -71 -201t-115.5 -138t-150.5 -79.5t-175 -25.5q-117 0 -202 33.5t-153 111.5zM342 414q0 -59 27.5 -100.5t99.5 -41.5q98 0 147.5 73t77.5 218q19 99 19 148q0 66 -31 103.5t-96 37.5q-98 0 -147.5 -72.5t-78.5 -218.5q-18 -98 -18 -147z" />
<glyph unicode="h" horiz-adv-x="1114" d="M35 0l291 1458h254l-97 -475q51 47 118 71.5t144 24.5q49 0 99.5 -16t90.5 -52t65.5 -91.5t25.5 -135.5q0 -29 -4 -59.5t-10 -58.5l-133 -666h-254l131 649q4 16 6 34.5t2 35.5q0 70 -40 101.5t-89 31.5q-27 0 -59.5 -8t-63.5 -30.5t-55.5 -62.5t-36.5 -104l-131 -647 h-254z" />
<glyph unicode="i" horiz-adv-x="536" d="M37 0l207 1034h254l-207 -1034h-254zM281 1243l41 211h262l-43 -211h-260z" />
<glyph unicode="j" horiz-adv-x="536" d="M-229 -399l43 215h92q47 0 75.5 29.5t38.5 78.5l224 1110h254l-226 -1132q-29 -141 -115.5 -221t-228.5 -80h-157zM281 1243l41 211h262l-43 -211h-260z" />
<glyph unicode="k" horiz-adv-x="1093" d="M37 0l291 1458h254l-164 -825l422 434h301l-447 -444l283 -623h-291l-184 465l-146 -135l-65 -330h-254z" />
<glyph unicode="l" horiz-adv-x="636" d="M84 231q0 49 8 88l227 1139h254l-227 -1136q-4 -14 -5 -23.5t-1 -22.5q0 -61 78 -61h104l-43 -215h-139q-111 0 -183.5 60.5t-72.5 170.5z" />
<glyph unicode="m" horiz-adv-x="1703" d="M37 0l213 1067h244l-21 -102q53 53 125 83.5t156 30.5q57 0 122.5 -29.5t108.5 -107.5q27 29 58.5 54.5t71.5 44t90 28.5t114 10q53 0 106.5 -17.5t95.5 -54t68.5 -92t26.5 -131.5q0 -35 -4 -64.5t-8 -53.5l-134 -666h-253l129 649q4 16 6 34.5t2 35.5q0 70 -40 101.5 t-87 31.5q-27 0 -59.5 -8t-63.5 -30.5t-56.5 -62.5t-37.5 -104l-129 -647h-254l129 649q4 16 6 34.5t2 35.5q0 70 -39 101.5t-86 31.5q-27 0 -59.5 -8t-64.5 -30.5t-57.5 -62.5t-37.5 -104l-129 -647h-254z" />
<glyph unicode="n" horiz-adv-x="1114" d="M35 0l213 1067h244l-19 -102q51 55 124 84.5t157 29.5q47 0 95 -16t88 -52t64.5 -91.5t24.5 -135.5q0 -29 -4 -60.5t-10 -57.5l-133 -666h-254l131 649q4 18 6 35.5t2 34.5q0 70 -39 101.5t-88 31.5q-29 0 -61.5 -8t-63.5 -30.5t-55.5 -62.5t-36.5 -104l-131 -647h-254z " />
<glyph unicode="o" horiz-adv-x="1054" d="M76 340q0 49 7 103.5t15 91.5q16 84 35 147t42.5 113.5t51 88.5t62.5 72q59 59 142 91t185 32q68 0 132.5 -20.5t114.5 -63.5t82 -109.5t32 -158.5q0 -49 -7 -103.5t-14 -88.5q-16 -84 -35.5 -148.5t-42 -115t-50 -89.5t-62.5 -71q-61 -59 -143 -91t-185 -32 q-68 0 -133 20.5t-115.5 63.5t-82 109.5t-31.5 158.5zM328 369q0 -78 37.5 -116t97.5 -38q41 0 73.5 14.5t57.5 38.5q39 37 64.5 101.5t43.5 165.5q14 68 18.5 107.5t4.5 55.5q0 78 -38 116t-97 38q-78 0 -131 -53q-39 -37 -63.5 -101.5t-45.5 -162.5q-14 -70 -18 -109 t-4 -57z" />
<glyph unicode="p" horiz-adv-x="1091" d="M-41 -391l291 1458h246l-23 -102q53 61 121 87.5t143 26.5q84 0 140.5 -27.5t89 -70.5t46 -95.5t13.5 -101.5q0 -39 -6 -91t-27 -158q-33 -166 -70.5 -273.5t-99.5 -169.5q-61 -61 -129.5 -82.5t-140.5 -21.5t-136.5 26.5t-105.5 87.5l-98 -493h-254zM375 362 q0 -25 4 -50t17.5 -46.5t39 -36t66.5 -14.5q57 0 96 22.5t65.5 64.5t44 100.5t31.5 132.5q8 41 15.5 89t7.5 83q0 25 -4 50t-17.5 46.5t-39 35t-66.5 13.5q-57 0 -96 -22.5t-66 -63.5t-44 -99.5t-32 -131.5q-8 -41 -15 -89.5t-7 -83.5z" />
<glyph unicode="q" horiz-adv-x="1091" d="M70 299q0 35 7 95.5t23 140.5q29 152 64 261t108 183q53 53 124 76.5t149 23.5q92 0 151.5 -30.5t94.5 -90.5l22 109h246l-291 -1458h-254l94 485q-37 -43 -99.5 -74.5t-148.5 -31.5q-59 0 -112 18.5t-93 56t-62.5 96t-22.5 140.5zM332 362q0 -25 4 -50t17.5 -46.5 t39 -36t66.5 -14.5q57 0 96 22.5t65.5 64.5t44 100.5t31.5 132.5q8 41 15.5 88t7.5 82q0 25 -4 50t-17.5 46.5t-39 36t-66.5 14.5q-57 0 -96 -22.5t-66 -63.5t-44 -99.5t-32 -131.5q-8 -41 -15 -89.5t-7 -83.5z" />
<glyph unicode="r" horiz-adv-x="880" d="M37 0l213 1067h246l-23 -104q45 53 115.5 84.5t154.5 31.5q78 0 131.5 -24.5t96.5 -75.5l-219 -195q-20 27 -48 46.5t-69 19.5q-76 0 -136.5 -56.5t-78.5 -148.5l-129 -645h-254z" />
<glyph unicode="s" horiz-adv-x="972" d="M-27 147l183 160q41 -47 97 -74.5t148 -27.5q111 0 164 43t53 90q0 43 -26.5 61.5t-73.5 26.5l-139 23q-74 12 -123 37.5t-79 58.5t-42 70.5t-12 74.5q0 74 27.5 143.5t80.5 122.5q123 123 355 123q115 0 199.5 -29.5t154.5 -101.5l-174 -153q-37 39 -91 57t-112 18 q-98 0 -142 -39.5t-44 -89.5q0 -66 98 -79l137 -23q143 -23 200.5 -94.5t57.5 -182.5q0 -80 -30.5 -143t-83.5 -115q-66 -63 -166.5 -89.5t-204.5 -26.5q-143 0 -241.5 41t-170.5 118z" />
<glyph unicode="t" horiz-adv-x="690" d="M117 231q0 29 2 50.5t6 37.5l104 523h-108l39 192h108l64 320h254l-64 -320h176l-39 -192h-176l-104 -525q-4 -16 -4 -24v-14q0 -66 82 -66h92l-43 -213h-131q-111 0 -184.5 60.5t-73.5 170.5z" />
<glyph unicode="u" horiz-adv-x="1114" d="M90 285q0 31 5 60.5t9 55.5l134 666h254l-132 -649q-4 -16 -6 -34.5t-2 -35.5q0 -70 39 -101.5t88 -31.5q27 0 59.5 8t63.5 30.5t56.5 62.5t37.5 104l131 647h254l-213 -1067h-243l18 102q-51 -55 -122.5 -84.5t-155.5 -29.5q-47 0 -95.5 16t-88.5 52t-65.5 92.5 t-25.5 136.5z" />
<glyph unicode="v" horiz-adv-x="960" d="M117 1067h252l75 -688l344 688h273l-584 -1067h-201z" />
<glyph unicode="w" horiz-adv-x="1472" d="M117 1067h254l37 -666l337 666h185l78 -666l290 666h269l-510 -1067h-201l-84 678l-350 -678h-205z" />
<glyph unicode="x" horiz-adv-x="1028" d="M-78 0l453 551l-242 516h293l125 -317l227 317h309l-430 -530l252 -537h-293l-133 334l-247 -334h-314z" />
<glyph unicode="y" horiz-adv-x="950" d="M-51 -391l47 229h57q55 0 86 26.5t60 84.5l67 127l-151 991h252l77 -688l342 688h269l-666 -1239q-18 -35 -40.5 -67.5t-47.5 -57.5q-51 -51 -112.5 -72.5t-141.5 -21.5h-98z" />
<glyph unicode="z" horiz-adv-x="944" d="M-27 0l39 195l568 645h-426l45 227h764l-39 -195l-572 -645h457l-45 -227h-791z" />
<glyph unicode="{" horiz-adv-x="890" d="M104 631l48 225h88q66 0 110 39q23 18 35 49t23 74l57 289q14 70 39.5 129t79.5 106q80 68 229 68h201l-45 -228h-95q-47 0 -75.5 -7t-47 -25.5t-29.5 -48t-20 -74.5l-59 -293q-20 -102 -68.5 -144t-107.5 -57q45 -23 71.5 -60.5t26.5 -99.5q0 -29 -6 -59l-55 -278 q-4 -25 -7 -44.5t-3 -37.5q0 -47 28.5 -62.5t87.5 -15.5h117l-45 -228h-197q-72 0 -121 23t-78.5 57.5t-43 78.5t-13.5 85q0 25 2 42.5t7 33.5l61 301q6 31 6 55q0 16 -3 27.5t-7 21.5q-10 23 -33.5 40.5t-71.5 17.5h-86z" />
<glyph unicode="|" horiz-adv-x="681" d="M80 -152l350 1762h254l-352 -1762h-252z" />
<glyph unicode="}" horiz-adv-x="890" d="M-41 -152l45 228h94q47 0 76 7t47.5 25.5t28.5 48t20 74.5l60 293q20 102 68 144.5t108 56.5q-45 23 -71.5 60.5t-26.5 99.5q0 29 6 59l55 279q4 25 7 44t3 38q0 47 -28.5 62t-88.5 15h-116l45 228h196q72 0 121 -22.5t79 -58.5t43 -79t13 -84q0 -25 -2 -42t-6 -34 l-61 -301q-4 -16 -5 -30.5t-1 -24.5q0 -16 3 -27.5t7 -21.5q10 -23 33.5 -40.5t70.5 -17.5h86l-47 -225h-88q-66 0 -110 -39q-39 -33 -58 -123l-57 -288q-14 -70 -40 -129.5t-79 -106.5q-80 -68 -229 -68h-201z" />
<glyph unicode="~" horiz-adv-x="1179" d="M78 608q59 55 110.5 86t94.5 47.5t78.5 20.5t64.5 4q63 0 113.5 -16.5t105.5 -49.5q45 -27 80 -38t74 -11q41 0 88 15.5t106 70.5l131 -170q-59 -55 -109 -85.5t-93 -47t-79 -20.5t-65 -4q-63 0 -113.5 16t-105.5 49q-45 27 -81 38t-75 11q-41 0 -87 -16t-105 -72z" />
<glyph unicode="&#xa1;" horiz-adv-x="675" d="M-33 -391l258 1003h191l-135 -1003h-314zM219 795l53 272h269l-54 -272h-268z" />
<glyph unicode="&#xa2;" horiz-adv-x="991" d="M123 612q0 113 29.5 226.5t89 208t150.5 159t214 78.5l35 174h197l-35 -176q86 -20 143.5 -63t91.5 -99l-186 -153q-41 70 -121 86l-121 -613q84 12 158 86l139 -170q-35 -33 -68.5 -57.5t-70.5 -41.5t-80 -29.5t-96 -20.5l-41 -207h-197l43 215q-53 12 -102 45t-88 84 t-61.5 118.5t-22.5 149.5zM377 629q0 -55 20.5 -109.5t73.5 -73.5l117 607q-31 -10 -63.5 -37t-57.5 -66q-41 -66 -65.5 -151.5t-24.5 -169.5z" />
<glyph unicode="&#xa3;" horiz-adv-x="1128" d="M92 0l123 614h-119l37 193h119l39 186q20 102 61 190.5t106.5 152t160 99t225.5 35.5q115 0 200.5 -39.5t143.5 -113.5l-201 -172q-29 47 -68.5 66.5t-97.5 19.5q-66 0 -110.5 -20.5t-75.5 -55.5t-49.5 -80t-28.5 -92l-35 -176h223l-38 -193h-222l-75 -374h581l-47 -240 h-852z" />
<glyph unicode="&#xa4;" horiz-adv-x="1370" d="M131 195l148 147q-33 53 -50.5 115.5t-17.5 128.5q0 133 68 241l-148 148l164 164l147 -148q53 33 114.5 50.5t129.5 17.5q133 0 242 -68l147 148l164 -164l-147 -148q68 -109 67 -241q0 -68 -17.5 -129.5t-49.5 -114.5l147 -147l-164 -164l-147 147q-109 -68 -242 -67 q-66 0 -128 17t-116 50l-147 -147zM436 586q0 -51 19.5 -97.5t53.5 -80t80 -53t97 -19.5t96 19.5t79 53t53.5 80t19.5 97.5t-19.5 96t-53.5 79t-79 53.5t-96 19.5t-97 -19.5t-80 -53.5t-53.5 -79t-19.5 -96z" />
<glyph unicode="&#xa5;" horiz-adv-x="1126" d="M94 301l39 193h291l22 104l-30 102h-242l37 193h143l-172 565h287l156 -604l376 604h299l-380 -565h151l-39 -193h-241l-76 -112l-21 -94h297l-39 -193h-295l-61 -301h-270l61 301h-293z" />
<glyph unicode="&#xa6;" horiz-adv-x="688" d="M80 -152l141 717h254l-143 -717h-252zM287 893l143 717h254l-143 -717h-254z" />
<glyph unicode="&#xa7;" horiz-adv-x="1032" d="M12 -82q0 14 2 31h236q-6 -55 24.5 -92t98.5 -37q61 0 112.5 38t51.5 126q0 41 -25 76.5t-84 60.5l-106 43q-88 35 -147.5 110.5t-59.5 192.5q0 125 60.5 234.5t180.5 168.5q-53 45 -78.5 99.5t-25.5 134.5q0 68 25.5 133.5t77 117.5t130 83.5t183.5 31.5q80 0 140 -22.5 t101 -62t61.5 -93t20.5 -114.5q0 -12 -1 -25.5t-3 -24.5h-227q6 70 -29 97.5t-88 27.5q-78 0 -117 -44t-39 -105q0 -43 26 -70.5t79 -50.5l108 -43q39 -16 77 -44t66.5 -65.5t46 -87t17.5 -106.5q0 -125 -55 -230.5t-182 -173.5q49 -35 79.5 -89t30.5 -150 q0 -72 -24.5 -143.5t-76.5 -128t-136 -91t-203 -34.5q-70 0 -129 20.5t-103.5 58t-70 92t-25.5 121.5v29zM350 496q0 -39 12.5 -64.5t31 -41t40 -22t39.5 -6.5q39 0 65.5 11.5t49.5 29.5q27 23 47 59t31 89q6 30 6 57q0 76 -41 104.5t-84 28.5q-39 0 -64.5 -12t-48.5 -31 q-27 -23 -47 -58.5t-31 -88.5q-4 -16 -5 -27.5t-1 -27.5z" />
<glyph unicode="&#xa8;" horiz-adv-x="1052" d="M344 1235l49 250h217l-49 -250h-217zM772 1235l49 250h217l-49 -250h-217z" />
<glyph unicode="&#xa9;" horiz-adv-x="1640" d="M156 729q0 145 55 274.5t150.5 224.5t224.5 150.5t274 55.5t274.5 -55.5t224.5 -150.5t150.5 -224.5t55.5 -274.5t-55.5 -274t-150.5 -224.5t-224 -150.5t-275 -55q-145 0 -274 55t-224.5 150.5t-150.5 224.5t-55 274zM326 729q0 -117 41 -217t113.5 -174t170 -115 t209.5 -41q113 0 211 41t170 115t114 174t42 217t-42 217.5t-114 174t-170 114.5t-211 41t-210 -41t-169.5 -114.5t-113.5 -174t-41 -217.5zM526 729q0 94 28 165t75 119t110.5 72.5t137.5 24.5q82 0 140 -26.5t113 -73.5l-108 -109q-41 35 -70.5 48.5t-74.5 13.5 q-92 0 -139.5 -62.5t-47.5 -171.5t47 -171t140 -62q45 0 74.5 13t70.5 48l108 -108q-53 -47 -112.5 -74t-140.5 -27q-74 0 -137.5 24.5t-110.5 73t-75 119t-28 164.5z" />
<glyph unicode="&#xaa;" horiz-adv-x="882" d="M150 827q0 123 81 201q86 84 244 84h203l8 49q4 16 5 25.5t1 19.5q0 41 -29.5 65.5t-95.5 24.5q-63 0 -106 -21.5t-76 -55.5l-106 137q53 53 125.5 82.5t191.5 29.5q53 0 107.5 -12t97.5 -39.5t70.5 -72.5t27.5 -113q0 -16 -2 -38t-6 -38l-111 -549h-196l14 74 q-35 -37 -85 -59.5t-122 -22.5q-111 0 -176 64.5t-65 164.5zM348 846q0 -82 111 -82q80 0 131 51q18 18 30.5 46t18.5 61l10 51h-155q-70 0 -108 -37t-38 -90z" />
<glyph unicode="&#xab;" horiz-adv-x="1222" d="M74 565l588 502l-68 -328l-227 -196l149 -197l-55 -291zM616 565l588 502l-67 -328l-228 -196l150 -197l-55 -291z" />
<glyph unicode="&#xac;" d="M86 500l47 235h877l-109 -540h-235l61 305h-641z" />
<glyph unicode="&#xad;" horiz-adv-x="829" d="M104 467l48 235h600l-47 -235h-601z" />
<glyph unicode="&#xae;" horiz-adv-x="1640" d="M156 729q0 145 55 274.5t150.5 224.5t224.5 150.5t274 55.5t274.5 -55.5t224.5 -150.5t150.5 -224.5t55.5 -274.5t-55.5 -274t-150.5 -224.5t-224 -150.5t-275 -55q-145 0 -274 55t-224.5 150.5t-150.5 224.5t-55 274zM324 729q0 -117 41 -217t113.5 -174t169.5 -115 t212 -41q113 0 211 41t171 115t114 174t41 217t-41 217.5t-114 174t-171 114.5t-211 41q-115 0 -212 -41t-169.5 -114.5t-113.5 -174t-41 -217.5zM604 354v750h305q57 0 103.5 -19.5t78 -51.5t49 -75t17.5 -90q0 -78 -41 -127t-94 -71l156 -316h-191l-135 289h-80v-289h-168 zM772 774h115q47 0 75.5 26.5t28.5 67.5t-28.5 70t-75.5 29h-115v-193z" />
<glyph unicode="&#xaf;" horiz-adv-x="1040" d="M365 1268l34 168h617l-33 -168h-618z" />
<glyph unicode="&#xb0;" horiz-adv-x="942" d="M223 1110q0 78 28 145.5t77 116.5t115.5 77t144.5 28t144.5 -28t115.5 -77t76.5 -116.5t27.5 -145.5t-27.5 -144.5t-76.5 -115.5t-115.5 -77t-144.5 -28t-144.5 28t-115.5 77t-77 115.5t-28 144.5zM426 1110q0 -70 47 -117t115 -47t115 47t47 117t-47.5 117t-114.5 47 q-68 0 -115 -47t-47 -117z" />
<glyph unicode="&#xb1;" d="M-4 0l47 236h862l-47 -236h-862zM131 690l47 234h311l68 336h238l-68 -336h313l-47 -234h-313l-68 -338h-237l67 338h-311z" />
<glyph unicode="&#xb2;" horiz-adv-x="647" d="M49 584l35 164l362 346q39 37 56.5 66.5t17.5 66.5q0 31 -15.5 53.5t-53.5 22.5q-53 0 -74 -30t-27 -65h-184q10 53 31.5 100.5t58.5 82t89 55t124 20.5q115 0 176.5 -60.5t61.5 -164.5q0 -78 -37 -136t-103 -118l-256 -239h310l-33 -164h-539z" />
<glyph unicode="&#xb3;" horiz-adv-x="647" d="M86 776q0 23 1 36t3 30h182q-6 -47 12.5 -75t65.5 -28q43 0 76 32t33 91q0 90 -80 90h-23l31 156h21q33 0 54 11t34.5 29.5t18.5 39t5 39.5q0 41 -19.5 58.5t-45.5 17.5q-41 0 -68 -23t-37 -72h-184q25 139 106.5 198.5t202.5 59.5q104 0 168 -62.5t64 -164.5 q0 -66 -29 -122t-100 -91q35 -27 51 -62.5t16 -99.5q0 -129 -83 -209t-224 -80q-68 0 -116 17.5t-77.5 45.5t-44 64.5t-14.5 73.5z" />
<glyph unicode="&#xb4;" horiz-adv-x="1040" d="M555 1231l227 342h244l-266 -342h-205z" />
<glyph unicode="&#xb5;" horiz-adv-x="1122" d="M-47 -391l291 1458h254l-131 -649q-6 -35 -7 -70q0 -70 39 -101.5t86 -31.5q27 0 60 8t64.5 30.5t57 62.5t38.5 104l129 647h253l-213 -1067h-243l20 102q-53 -53 -124.5 -83.5t-155.5 -30.5q-51 0 -82 30l-82 -409h-254z" />
<glyph unicode="&#xb6;" horiz-adv-x="1302" d="M170 1030q0 80 28.5 157t91 137t161 97t237.5 37h639l-371 -1849h-251l321 1612h-195l-323 -1612h-252l211 1061q-49 4 -101.5 28.5t-96.5 69.5t-71.5 110.5t-27.5 151.5z" />
<glyph unicode="&#xb7;" horiz-adv-x="555" d="M117 440l57 289h289l-57 -289h-289z" />
<glyph unicode="&#xb8;" horiz-adv-x="1054" d="M152 -412l176 295h198l-143 -295h-231z" />
<glyph unicode="&#xb9;" horiz-adv-x="647" d="M201 1092l45 219l207 147h182l-174 -874h-185l132 657z" />
<glyph unicode="&#xba;" horiz-adv-x="899" d="M184 881q0 39 5.5 81t11.5 70q23 123 57.5 202t93.5 136q49 47 116 72.5t146 25.5q49 0 100.5 -14t93.5 -48t68.5 -87t26.5 -131q0 -39 -5 -83t-11 -73q-23 -123 -58.5 -201.5t-95.5 -136.5q-49 -47 -114.5 -72.5t-145.5 -25.5q-49 0 -100 15.5t-93 49t-69 88t-27 132.5z M387 901q0 -63 28.5 -92t76.5 -29q37 0 64.5 13.5t43.5 31.5q33 33 50.5 84.5t31.5 122.5q10 53 14 83t4 48q0 63 -29.5 92t-76.5 29q-37 0 -63.5 -12t-43.5 -31q-33 -33 -51 -85t-33 -124q-10 -53 -13 -82.5t-3 -48.5z" />
<glyph unicode="&#xbb;" horiz-adv-x="1222" d="M37 55l65 328l230 197l-152 198l58 289l387 -508zM580 55l65 328l227 197l-149 198l57 289l387 -508z" />
<glyph unicode="&#xbc;" horiz-adv-x="1703" d="M201 1092l45 219l207 147h182l-174 -874h-185l132 657zM317 0l949 1458h202l-946 -1458h-205zM985 123l31 166l395 585h205l-397 -585h145l27 135h176l-29 -135h70l-33 -166h-68l-24 -123h-174l24 123h-348z" />
<glyph unicode="&#xbd;" horiz-adv-x="1703" d="M201 1092l45 219l207 147h182l-174 -874h-185l132 657zM317 0l949 1458h202l-946 -1458h-205zM989 0l35 164l362 346q39 37 56.5 66.5t17.5 66.5q0 31 -15 53.5t-54 22.5q-53 0 -74 -30t-27 -64h-184q10 53 31.5 100t58.5 82t89 55.5t124 20.5q115 0 176.5 -61t61.5 -165 q0 -78 -37 -136t-103 -118l-256 -239h310l-33 -164h-539z" />
<glyph unicode="&#xbe;" horiz-adv-x="1703" d="M86 778q0 23 1 36t3 30h182q-6 -47 12.5 -75t65.5 -28q43 0 76 32t33 91q0 90 -80 90h-23l31 156h21q33 0 54 11.5t34.5 29.5t18.5 38.5t5 39.5q0 41 -19.5 58.5t-45.5 17.5q-41 0 -68 -22.5t-37 -72.5h-184q25 139 106.5 198.5t202.5 59.5q104 0 168 -62.5t64 -164.5 q0 -66 -29 -122t-100 -91q35 -27 51 -62.5t16 -99.5q0 -129 -83 -208.5t-224 -79.5q-68 0 -116 17t-77.5 45t-44 64.5t-14.5 73.5zM317 0l949 1458h202l-946 -1458h-205zM985 123l31 166l395 585h205l-397 -585h145l27 135h176l-29 -135h70l-33 -166h-68l-24 -123h-174 l24 123h-348z" />
<glyph unicode="&#xbf;" horiz-adv-x="1017" d="M-35 -78q0 104 40 184t112 158l182 201q16 18 33.5 47t23.5 57l9 45h253l-14 -65q-12 -59 -35.5 -110.5t-74.5 -104.5l-183 -193q-39 -41 -64.5 -87t-25.5 -105q0 -51 31 -88t90 -37q82 0 130 46t65 124h254q-18 -104 -62.5 -179t-109 -124t-144.5 -71.5t-172 -22.5 q-66 0 -127 22.5t-108.5 63.5t-75 101t-27.5 138zM387 795l53 272h267l-52 -272h-268z" />
<glyph unicode="&#xc0;" horiz-adv-x="1243" d="M-94 0l794 1458h215l215 -1458h-274l-31 266h-493l-137 -266h-289zM442 487h363l-70 562zM580 1937h241l92 -344h-188z" />
<glyph unicode="&#xc1;" horiz-adv-x="1243" d="M-94 0l794 1458h215l215 -1458h-274l-31 266h-493l-137 -266h-289zM442 487h363l-70 562zM711 1593l225 344h246l-269 -344h-202z" />
<glyph unicode="&#xc2;" horiz-adv-x="1243" d="M-94 0l794 1458h215l215 -1458h-274l-31 266h-493l-137 -266h-289zM442 487h363l-70 562zM459 1593l325 349h205l189 -349h-189l-121 193l-202 -193h-207z" />
<glyph unicode="&#xc3;" horiz-adv-x="1243" d="M-94 0l794 1458h215l215 -1458h-274l-31 266h-493l-137 -266h-289zM442 487h363l-70 562zM489 1757q57 53 109.5 80t118.5 27q53 0 90 -13.5t67 -31.5q31 -18 54.5 -26.5t54.5 -8.5q39 0 68.5 16.5t58.5 44.5l92 -121q-57 -53 -109.5 -79.5t-117.5 -26.5q-53 0 -90 13.5 t-68 31.5t-54.5 26.5t-53.5 8.5q-39 0 -69 -17.5t-58 -46.5z" />
<glyph unicode="&#xc4;" horiz-adv-x="1243" d="M-94 0l794 1458h215l215 -1458h-274l-31 266h-493l-137 -266h-289zM442 487h363l-70 562zM498 1597l49 250h217l-49 -250h-217zM926 1597l49 250h217l-49 -250h-217z" />
<glyph unicode="&#xc5;" horiz-adv-x="1243" d="M-94 0l794 1458h215l215 -1458h-274l-31 266h-493l-137 -266h-289zM442 487h363l-70 562zM565 1798q0 55 20.5 102.5t55 83t83 55t101.5 19.5t100 -19.5t82 -54t55.5 -83t20.5 -103.5t-20.5 -102t-55.5 -83t-82 -55.5t-100 -19.5t-101.5 19.5t-83 55.5t-55 83t-20.5 102z M706 1798q0 -49 36 -84t83 -35t83 35t36 84t-36 84t-83 35t-83 -35t-36 -84z" />
<glyph unicode="&#xc6;" horiz-adv-x="1925" d="M-98 0l1016 1458h1083l-47 -235h-641l-72 -371h549l-47 -236h-551l-76 -380h649l-47 -236h-919l65 334h-434l-229 -334h-299zM586 559h325l131 662z" />
<glyph unicode="&#xc7;" horiz-adv-x="1212" d="M109 401q0 47 8 126t35 202q20 106 39.5 190.5t43 153t55.5 124.5t79 108q84 88 192.5 126.5t218.5 38.5q113 0 196 -34.5t138 -96t82 -143.5t27 -176h-271q0 45 -11 84t-33.5 67.5t-58.5 45t-87 16.5q-66 0 -111 -22.5t-84 -61.5q-23 -23 -41 -54.5t-34.5 -79.5 t-34 -118t-35.5 -168q-16 -92 -28.5 -173t-12.5 -134q0 -94 55.5 -145.5t138.5 -51.5q53 0 97.5 18.5t78 48.5t57 67.5t38.5 78.5h278q-74 -227 -224 -338.5t-345 -111.5q-104 0 -187 31.5t-140.5 88t-88 132t-30.5 161.5zM273 -412l176 295h198l-143 -295h-231z" />
<glyph unicode="&#xc8;" horiz-adv-x="1183" d="M57 0l293 1458h910l-48 -237h-639l-73 -367h551l-47 -238h-551l-76 -378h651l-47 -238h-924zM560 1937h241l92 -344h-188z" />
<glyph unicode="&#xc9;" horiz-adv-x="1183" d="M57 0l293 1458h910l-48 -237h-639l-73 -367h551l-47 -238h-551l-76 -378h651l-47 -238h-924zM691 1593l225 344h246l-269 -344h-202z" />
<glyph unicode="&#xca;" horiz-adv-x="1183" d="M57 0l293 1458h910l-48 -237h-639l-73 -367h551l-47 -238h-551l-76 -378h651l-47 -238h-924zM439 1593l325 349h205l189 -349h-189l-121 193l-202 -193h-207z" />
<glyph unicode="&#xcb;" horiz-adv-x="1183" d="M57 0l293 1458h910l-48 -237h-639l-73 -367h551l-47 -238h-551l-76 -378h651l-47 -238h-924zM478 1597l49 250h217l-49 -250h-217zM906 1597l49 250h217l-49 -250h-217z" />
<glyph unicode="&#xcc;" horiz-adv-x="593" d="M57 0l293 1458h271l-293 -1458h-271zM287 1937h241l92 -344h-188z" />
<glyph unicode="&#xcd;" horiz-adv-x="593" d="M57 0l293 1458h271l-293 -1458h-271zM394 1593l225 344h246l-269 -344h-202z" />
<glyph unicode="&#xce;" horiz-adv-x="593" d="M57 0l293 1458h271l-293 -1458h-271zM142 1593l325 349h205l189 -349h-189l-121 193l-202 -193h-207z" />
<glyph unicode="&#xcf;" horiz-adv-x="593" d="M57 0l293 1458h271l-293 -1458h-271zM181 1597l49 250h217l-49 -250h-217zM609 1597l49 250h217l-49 -250h-217z" />
<glyph unicode="&#xd0;" horiz-adv-x="1327" d="M94 633l41 205h135l125 620h477q90 0 169 -23.5t137.5 -73.5t91.5 -127t33 -183q0 -25 -2.5 -50.5t-7.5 -61.5t-14 -85t-24 -119q-27 -133 -48 -225t-46.5 -158.5t-58.5 -115t-80 -93.5q-150 -143 -401 -143h-519l127 633h-135zM420 238h205q66 0 120 19t97 60 q23 20 40 50t33.5 77.5t33 117t36.5 173.5q25 127 35 192.5t10 100.5q0 98 -55 145.5t-150 47.5h-207l-77 -383h225l-41 -205h-225z" />
<glyph unicode="&#xd1;" horiz-adv-x="1386" d="M57 0l293 1458h230l381 -913l182 913h270l-293 -1458h-229l-379 911l-184 -911h-271zM528 1757q57 53 109.5 80t118.5 27q53 0 90 -13.5t67 -31.5q31 -18 54.5 -26.5t54.5 -8.5q39 0 68.5 16.5t58.5 44.5l92 -121q-57 -53 -109.5 -79.5t-117.5 -26.5q-53 0 -90 13.5 t-68 31.5t-54.5 26.5t-53.5 8.5q-39 0 -69 -17.5t-58 -46.5z" />
<glyph unicode="&#xd2;" horiz-adv-x="1251" d="M109 401q0 49 8 127t33 201q20 106 39.5 190.5t43 153t55 124.5t79.5 106q86 92 193.5 129.5t217.5 37.5q104 0 186.5 -32.5t138.5 -89t86 -131t30 -160.5q0 -49 -8.5 -127t-32.5 -201q-20 -106 -40 -190t-43.5 -153t-55 -125t-78.5 -105q-86 -92 -194 -130t-218 -38 q-104 0 -186 32.5t-138.5 89t-86 131t-29.5 160.5zM379 424q0 -98 56.5 -148.5t131.5 -50.5q115 0 195 88q20 23 37.5 52.5t35 76.5t35 117t37.5 170q18 92 29.5 172t11.5 133q0 98 -55 148.5t-133 50.5q-115 0 -195 -88q-20 -23 -37.5 -52.5t-35 -77.5t-35 -117t-37.5 -169 q-18 -92 -29.5 -172t-11.5 -133zM580 1937h241l92 -344h-188z" />
<glyph unicode="&#xd3;" horiz-adv-x="1251" d="M109 401q0 49 8 127t33 201q20 106 39.5 190.5t43 153t55 124.5t79.5 106q86 92 193.5 129.5t217.5 37.5q104 0 186.5 -32.5t138.5 -89t86 -131t30 -160.5q0 -49 -8.5 -127t-32.5 -201q-20 -106 -40 -190t-43.5 -153t-55 -125t-78.5 -105q-86 -92 -194 -130t-218 -38 q-104 0 -186 32.5t-138.5 89t-86 131t-29.5 160.5zM379 424q0 -98 56.5 -148.5t131.5 -50.5q115 0 195 88q20 23 37.5 52.5t35 76.5t35 117t37.5 170q18 92 29.5 172t11.5 133q0 98 -55 148.5t-133 50.5q-115 0 -195 -88q-20 -23 -37.5 -52.5t-35 -77.5t-35 -117t-37.5 -169 q-18 -92 -29.5 -172t-11.5 -133zM711 1593l225 344h246l-269 -344h-202z" />
<glyph unicode="&#xd4;" horiz-adv-x="1251" d="M109 401q0 49 8 127t33 201q20 106 39.5 190.5t43 153t55 124.5t79.5 106q86 92 193.5 129.5t217.5 37.5q104 0 186.5 -32.5t138.5 -89t86 -131t30 -160.5q0 -49 -8.5 -127t-32.5 -201q-20 -106 -40 -190t-43.5 -153t-55 -125t-78.5 -105q-86 -92 -194 -130t-218 -38 q-104 0 -186 32.5t-138.5 89t-86 131t-29.5 160.5zM379 424q0 -98 56.5 -148.5t131.5 -50.5q115 0 195 88q20 23 37.5 52.5t35 76.5t35 117t37.5 170q18 92 29.5 172t11.5 133q0 98 -55 148.5t-133 50.5q-115 0 -195 -88q-20 -23 -37.5 -52.5t-35 -77.5t-35 -117t-37.5 -169 q-18 -92 -29.5 -172t-11.5 -133zM459 1593l325 349h205l189 -349h-189l-121 193l-202 -193h-207z" />
<glyph unicode="&#xd5;" horiz-adv-x="1251" d="M109 401q0 49 8 127t33 201q20 106 39.5 190.5t43 153t55 124.5t79.5 106q86 92 193.5 129.5t217.5 37.5q104 0 186.5 -32.5t138.5 -89t86 -131t30 -160.5q0 -49 -8.5 -127t-32.5 -201q-20 -106 -40 -190t-43.5 -153t-55 -125t-78.5 -105q-86 -92 -194 -130t-218 -38 q-104 0 -186 32.5t-138.5 89t-86 131t-29.5 160.5zM379 424q0 -98 56.5 -148.5t131.5 -50.5q115 0 195 88q20 23 37.5 52.5t35 76.5t35 117t37.5 170q18 92 29.5 172t11.5 133q0 98 -55 148.5t-133 50.5q-115 0 -195 -88q-20 -23 -37.5 -52.5t-35 -77.5t-35 -117t-37.5 -169 q-18 -92 -29.5 -172t-11.5 -133zM489 1757q57 53 109.5 80t118.5 27q53 0 90 -13.5t67 -31.5q31 -18 54.5 -26.5t54.5 -8.5q39 0 68.5 16.5t58.5 44.5l92 -121q-57 -53 -109.5 -79.5t-117.5 -26.5q-53 0 -90 13.5t-68 31.5t-54.5 26.5t-53.5 8.5q-39 0 -69 -17.5t-58 -46.5z " />
<glyph unicode="&#xd6;" horiz-adv-x="1251" d="M109 401q0 49 8 127t33 201q20 106 39.5 190.5t43 153t55 124.5t79.5 106q86 92 193.5 129.5t217.5 37.5q104 0 186.5 -32.5t138.5 -89t86 -131t30 -160.5q0 -49 -8.5 -127t-32.5 -201q-20 -106 -40 -190t-43.5 -153t-55 -125t-78.5 -105q-86 -92 -194 -130t-218 -38 q-104 0 -186 32.5t-138.5 89t-86 131t-29.5 160.5zM379 424q0 -98 56.5 -148.5t131.5 -50.5q115 0 195 88q20 23 37.5 52.5t35 76.5t35 117t37.5 170q18 92 29.5 172t11.5 133q0 98 -55 148.5t-133 50.5q-115 0 -195 -88q-20 -23 -37.5 -52.5t-35 -77.5t-35 -117t-37.5 -169 q-18 -92 -29.5 -172t-11.5 -133zM498 1597l49 250h217l-49 -250h-217zM926 1597l49 250h217l-49 -250h-217z" />
<glyph unicode="&#xd7;" d="M51 307l332 287l-219 289l186 159l217 -288l330 286l135 -176l-332 -289l220 -286l-185 -160l-217 291l-332 -289z" />
<glyph unicode="&#xd8;" horiz-adv-x="1251" d="M39 -90l154 233q-84 109 -84 258q0 49 8 127t33 201q20 106 39.5 190.5t43 153t55 124.5t79.5 106q86 92 193.5 129.5t217.5 37.5q68 0 126.5 -14t107.5 -41l86 133h196l-155 -239q80 -109 80 -252q0 -49 -8.5 -127t-32.5 -201q-20 -106 -40 -190t-43.5 -153t-55 -125 t-78.5 -105q-86 -92 -194 -130t-218 -38q-131 0 -230 51l-83 -129h-197zM379 414l500 780q-51 39 -119 39q-115 0 -195 -88q-20 -23 -37.5 -52.5t-35 -77.5t-35 -117t-37.5 -169q-18 -92 -29.5 -172t-11.5 -133v-10zM449 262q49 -37 118 -37q115 0 195 88q20 23 37.5 52.5 t35 76.5t35 117t37.5 170q18 92 29.5 172t11.5 133v6z" />
<glyph unicode="&#xd9;" horiz-adv-x="1300" d="M127 403q0 29 5 66t9 59l187 930h270l-190 -946q-4 -16 -7.5 -43t-3.5 -47q0 -37 11.5 -73t34 -62.5t59.5 -43t88 -16.5q117 0 194.5 77t106.5 222l186 932h271l-193 -958q-27 -135 -83 -231.5t-134 -159t-172 -92t-195 -29.5q-92 0 -174 28.5t-141 82t-94 131t-35 173.5 zM613 1937h241l92 -344h-188z" />
<glyph unicode="&#xda;" horiz-adv-x="1300" d="M127 403q0 29 5 66t9 59l187 930h270l-190 -946q-4 -16 -7.5 -43t-3.5 -47q0 -37 11.5 -73t34 -62.5t59.5 -43t88 -16.5q117 0 194.5 77t106.5 222l186 932h271l-193 -958q-27 -135 -83 -231.5t-134 -159t-172 -92t-195 -29.5q-92 0 -174 28.5t-141 82t-94 131t-35 173.5 zM744 1593l225 344h246l-269 -344h-202z" />
<glyph unicode="&#xdb;" horiz-adv-x="1300" d="M127 403q0 29 5 66t9 59l187 930h270l-190 -946q-4 -16 -7.5 -43t-3.5 -47q0 -37 11.5 -73t34 -62.5t59.5 -43t88 -16.5q117 0 194.5 77t106.5 222l186 932h271l-193 -958q-27 -135 -83 -231.5t-134 -159t-172 -92t-195 -29.5q-92 0 -174 28.5t-141 82t-94 131t-35 173.5 zM494 1593l325 349h205l189 -349h-189l-121 193l-202 -193h-207z" />
<glyph unicode="&#xdc;" horiz-adv-x="1300" d="M127 403q0 29 5 66t9 59l187 930h270l-190 -946q-4 -16 -7.5 -43t-3.5 -47q0 -37 11.5 -73t34 -62.5t59.5 -43t88 -16.5q117 0 194.5 77t106.5 222l186 932h271l-193 -958q-27 -135 -83 -231.5t-134 -159t-172 -92t-195 -29.5q-92 0 -174 28.5t-141 82t-94 131t-35 173.5 zM531 1597l49 250h217l-49 -250h-217zM959 1597l49 250h217l-49 -250h-217z" />
<glyph unicode="&#xdd;" horiz-adv-x="1126" d="M182 1458h287l156 -604l376 604h299l-585 -870l-119 -588h-270l120 598zM633 1593l225 344h246l-269 -344h-202z" />
<glyph unicode="&#xde;" horiz-adv-x="1230" d="M57 0l293 1458h271l-56 -274h246q92 0 166 -29t124 -79t76.5 -120.5t26.5 -156.5q0 -98 -34.5 -189.5t-103.5 -162t-170 -113.5t-232 -43h-279l-57 -291h-271zM434 530h242q66 0 114 22.5t79.5 58.5t47 80t15.5 85q0 70 -37 119t-127 49h-250z" />
<glyph unicode="&#xdf;" horiz-adv-x="1120" d="M37 0l215 1073q23 115 69 190.5t110.5 122t146 65.5t180.5 19q82 0 149.5 -20t116.5 -59t76.5 -98.5t27.5 -135.5q0 -39 -10 -79t-30.5 -78.5t-53.5 -71.5t-78 -58q45 -29 64.5 -66.5t19.5 -88.5q0 -27 -6 -58l-61 -327q-33 -174 -124 -252t-253 -78h-121l43 213h55 q29 0 50.5 8t42.5 25q41 33 55 102l59 303q2 12 3 22.5t1 18.5q0 47 -25.5 65.5t-68.5 18.5h-63l41 199h59q72 0 108.5 49t36.5 109q0 23 -5 41t-19 34q-16 18 -45 30.5t-74 12.5q-109 0 -158 -53t-67 -145l-211 -1053h-256z" />
<glyph unicode="&#xe0;" horiz-adv-x="1042" d="M23 270q0 78 24.5 141.5t71.5 110.5q59 59 139 85t172 26h254l14 63q4 16 5.5 27.5t1.5 28.5q0 53 -39 83.5t-119 30.5q-78 0 -133.5 -27.5t-96.5 -72.5l-131 170q66 66 156 104.5t240 38.5q68 0 135 -14t121.5 -49t88.5 -91.5t34 -142.5q0 -47 -11 -94l-139 -688h-244 l19 94q-45 -45 -107.5 -74.5t-150.5 -29.5q-141 0 -223 78.5t-82 201.5zM272 295q0 -45 33 -72.5t103 -27.5q53 0 95 18t70 47q25 25 40.5 59.5t23.5 75.5l12 64h-194q-86 0 -134.5 -46t-48.5 -118zM404 1573h242l92 -342h-187z" />
<glyph unicode="&#xe1;" horiz-adv-x="1042" d="M23 270q0 78 24.5 141.5t71.5 110.5q59 59 139 85t172 26h254l14 63q4 16 5.5 27.5t1.5 28.5q0 53 -39 83.5t-119 30.5q-78 0 -133.5 -27.5t-96.5 -72.5l-131 170q66 66 156 104.5t240 38.5q68 0 135 -14t121.5 -49t88.5 -91.5t34 -142.5q0 -47 -11 -94l-139 -688h-244 l19 94q-45 -45 -107.5 -74.5t-150.5 -29.5q-141 0 -223 78.5t-82 201.5zM272 295q0 -45 33 -72.5t103 -27.5q53 0 95 18t70 47q25 25 40.5 59.5t23.5 75.5l12 64h-194q-86 0 -134.5 -46t-48.5 -118zM535 1231l227 342h244l-266 -342h-205z" />
<glyph unicode="&#xe2;" horiz-adv-x="1042" d="M23 270q0 78 24.5 141.5t71.5 110.5q59 59 139 85t172 26h254l14 63q4 16 5.5 27.5t1.5 28.5q0 53 -39 83.5t-119 30.5q-78 0 -133.5 -27.5t-96.5 -72.5l-131 170q66 66 156 104.5t240 38.5q68 0 135 -14t121.5 -49t88.5 -91.5t34 -142.5q0 -47 -11 -94l-139 -688h-244 l19 94q-45 -45 -107.5 -74.5t-150.5 -29.5q-141 0 -223 78.5t-82 201.5zM272 295q0 -45 33 -72.5t103 -27.5q53 0 95 18t70 47q25 25 40.5 59.5t23.5 75.5l12 64h-194q-86 0 -134.5 -46t-48.5 -118zM285 1231l326 346h203l188 -346h-186l-123 192l-201 -192h-207z" />
<glyph unicode="&#xe3;" horiz-adv-x="1042" d="M23 270q0 78 24.5 141.5t71.5 110.5q59 59 139 85t172 26h254l14 63q4 16 5.5 27.5t1.5 28.5q0 53 -39 83.5t-119 30.5q-78 0 -133.5 -27.5t-96.5 -72.5l-131 170q66 66 156 104.5t240 38.5q68 0 135 -14t121.5 -49t88.5 -91.5t34 -142.5q0 -47 -11 -94l-139 -688h-244 l19 94q-45 -45 -107.5 -74.5t-150.5 -29.5q-141 0 -223 78.5t-82 201.5zM272 295q0 -45 33 -72.5t103 -27.5q53 0 95 18t70 47q25 25 40.5 59.5t23.5 75.5l12 64h-194q-86 0 -134.5 -46t-48.5 -118zM314 1382q55 53 107.5 80t117.5 27q53 0 90 -13.5t68 -31.5t54.5 -26.5 t53.5 -8.5q39 0 69 16.5t58 44.5l92 -120q-57 -53 -109 -80t-118 -27q-53 0 -90 13.5t-68 31.5t-54 26.5t-52 8.5q-41 0 -69.5 -17.5t-57.5 -45.5z" />
<glyph unicode="&#xe4;" horiz-adv-x="1042" d="M23 270q0 78 24.5 141.5t71.5 110.5q59 59 139 85t172 26h254l14 63q4 16 5.5 27.5t1.5 28.5q0 53 -39 83.5t-119 30.5q-78 0 -133.5 -27.5t-96.5 -72.5l-131 170q66 66 156 104.5t240 38.5q68 0 135 -14t121.5 -49t88.5 -91.5t34 -142.5q0 -47 -11 -94l-139 -688h-244 l19 94q-45 -45 -107.5 -74.5t-150.5 -29.5q-141 0 -223 78.5t-82 201.5zM272 295q0 -45 33 -72.5t103 -27.5q53 0 95 18t70 47q25 25 40.5 59.5t23.5 75.5l12 64h-194q-86 0 -134.5 -46t-48.5 -118zM324 1235l49 250h217l-49 -250h-217zM752 1235l49 250h217l-49 -250h-217z " />
<glyph unicode="&#xe5;" horiz-adv-x="1042" d="M23 270q0 78 24.5 141.5t71.5 110.5q59 59 139 85t172 26h254l14 63q4 16 5.5 27.5t1.5 28.5q0 53 -39 83.5t-119 30.5q-78 0 -133.5 -27.5t-96.5 -72.5l-131 170q66 66 156 104.5t240 38.5q68 0 135 -14t121.5 -49t88.5 -91.5t34 -142.5q0 -47 -11 -94l-139 -688h-244 l19 94q-45 -45 -107.5 -74.5t-150.5 -29.5q-141 0 -223 78.5t-82 201.5zM272 295q0 -45 33 -72.5t103 -27.5q53 0 95 18t70 47q25 25 40.5 59.5t23.5 75.5l12 64h-194q-86 0 -134.5 -46t-48.5 -118zM426 1456q0 55 20.5 102.5t55.5 82t82 54t100 19.5t100.5 -19.5t83.5 -54 t56.5 -82t20.5 -102.5t-20.5 -103t-56.5 -83t-83 -54.5t-101 -19.5q-53 0 -100 19.5t-82 54.5t-55.5 83t-20.5 103zM566 1456q0 -49 35.5 -85t82.5 -36t84 36t37 85q0 47 -36.5 82t-84.5 35q-47 0 -82.5 -35t-35.5 -82z" />
<glyph unicode="&#xe6;" horiz-adv-x="1642" d="M20 270q0 154 95 248q59 59 138 85t175 26h256l12 63q6 27 6 60q0 53 -37.5 83.5t-119.5 30.5q-78 0 -133.5 -26.5t-96.5 -73.5l-131 170q66 66 157 104.5t241 38.5q84 0 163.5 -24.5t135.5 -89.5q59 53 135 83.5t168 30.5q86 0 155.5 -25.5t119.5 -74.5t78 -120t28 -159 q0 -53 -9.5 -116.5t-23.5 -126.5h-639q-4 -23 -6 -39.5t-2 -36.5q0 -78 45 -128t137 -50q78 0 138.5 27.5t115.5 80.5l133 -168q-84 -78 -189.5 -116.5t-226.5 -38.5q-92 0 -180 34.5t-143 114.5q-78 -86 -165 -117.5t-188 -31.5q-160 0 -251 73.5t-91 208.5zM270 295 q0 -45 33 -72.5t103 -27.5q53 0 95 18t70 47q27 25 42.5 58.5t23.5 74.5l12 64h-196q-86 0 -134.5 -45t-48.5 -117zM926 629h391q6 32 6 71q0 84 -42 127t-110 43q-82 0 -146 -56t-99 -185z" />
<glyph unicode="&#xe7;" horiz-adv-x="937" d="M76 369q0 78 16 166q31 162 88.5 267t131 166.5t157.5 86t166 24.5q117 0 191.5 -43t121.5 -104l-190 -168q-31 41 -66 64.5t-82 23.5q-86 0 -151 -68q-41 -43 -70 -108.5t-43 -140.5q-6 -35 -10 -68t-4 -70q0 -86 39 -134t112 -48q53 0 97.5 22.5t89.5 67.5l141 -182 q-68 -63 -158 -99t-194 -36q-76 0 -145.5 24.5t-122 71.5t-84 118.5t-31.5 166.5zM154 -412l176 295h198l-143 -295h-231z" />
<glyph unicode="&#xe8;" horiz-adv-x="1071" d="M74 362q0 135 32.5 263.5t100 229.5t169 162.5t240.5 61.5q84 0 154 -26.5t120 -76.5t77.5 -121t27.5 -157q0 -53 -9 -116.5t-23 -124.5h-639q-4 -18 -6.5 -38t-2.5 -38q0 -78 45.5 -128t137.5 -50q78 0 138 27.5t116 80.5l133 -168q-84 -78 -189.5 -116.5t-226.5 -38.5 q-70 0 -140.5 19.5t-127 63.5t-92 115.5t-35.5 175.5zM356 627h392q6 32 6 71q0 86 -42 129t-110 43q-82 0 -146.5 -56t-99.5 -187zM434 1573h242l92 -342h-187z" />
<glyph unicode="&#xe9;" horiz-adv-x="1071" d="M74 362q0 135 32.5 263.5t100 229.5t169 162.5t240.5 61.5q84 0 154 -26.5t120 -76.5t77.5 -121t27.5 -157q0 -53 -9 -116.5t-23 -124.5h-639q-4 -18 -6.5 -38t-2.5 -38q0 -78 45.5 -128t137.5 -50q78 0 138 27.5t116 80.5l133 -168q-84 -78 -189.5 -116.5t-226.5 -38.5 q-70 0 -140.5 19.5t-127 63.5t-92 115.5t-35.5 175.5zM356 627h392q6 32 6 71q0 86 -42 129t-110 43q-82 0 -146.5 -56t-99.5 -187zM565 1231l227 342h244l-266 -342h-205z" />
<glyph unicode="&#xea;" horiz-adv-x="1071" d="M74 362q0 135 32.5 263.5t100 229.5t169 162.5t240.5 61.5q84 0 154 -26.5t120 -76.5t77.5 -121t27.5 -157q0 -53 -9 -116.5t-23 -124.5h-639q-4 -18 -6.5 -38t-2.5 -38q0 -78 45.5 -128t137.5 -50q78 0 138 27.5t116 80.5l133 -168q-84 -78 -189.5 -116.5t-226.5 -38.5 q-70 0 -140.5 19.5t-127 63.5t-92 115.5t-35.5 175.5zM315 1231l326 346h203l188 -346h-186l-123 192l-201 -192h-207zM356 627h392q6 32 6 71q0 86 -42 129t-110 43q-82 0 -146.5 -56t-99.5 -187z" />
<glyph unicode="&#xeb;" horiz-adv-x="1071" d="M74 362q0 135 32.5 263.5t100 229.5t169 162.5t240.5 61.5q84 0 154 -26.5t120 -76.5t77.5 -121t27.5 -157q0 -53 -9 -116.5t-23 -124.5h-639q-4 -18 -6.5 -38t-2.5 -38q0 -78 45.5 -128t137.5 -50q78 0 138 27.5t116 80.5l133 -168q-84 -78 -189.5 -116.5t-226.5 -38.5 q-70 0 -140.5 19.5t-127 63.5t-92 115.5t-35.5 175.5zM354 1235l49 250h217l-49 -250h-217zM356 627h392q6 32 6 71q0 86 -42 129t-110 43q-82 0 -146.5 -56t-99.5 -187zM782 1235l49 250h217l-49 -250h-217z" />
<glyph unicode="&#xec;" horiz-adv-x="536" d="M37 0l207 1034h254l-207 -1034h-254zM170 1573h242l92 -342h-187z" />
<glyph unicode="&#xed;" horiz-adv-x="536" d="M37 0l207 1034h254l-207 -1034h-254zM299 1231l227 342h244l-266 -342h-205z" />
<glyph unicode="&#xee;" horiz-adv-x="536" d="M37 0l207 1034h254l-207 -1034h-254zM45 1231l326 346h203l188 -346h-186l-123 192l-201 -192h-207z" />
<glyph unicode="&#xef;" horiz-adv-x="536" d="M37 0l207 1034h254l-207 -1034h-254zM78 1235l49 250h217l-49 -250h-217zM506 1235l49 250h217l-49 -250h-217z" />
<glyph unicode="&#xf0;" horiz-adv-x="1054" d="M86 338q0 31 6 81t17 101q14 80 31.5 140.5t39 109.5t49 88t64.5 74q53 53 130 82.5t163 29.5q33 0 61 -6l-43 133h-229l35 177h143l-39 127h262l37 -127h178l-35 -177h-94l49 -155q27 -84 41.5 -161t14.5 -146q0 -39 -5.5 -87.5t-15.5 -101.5q-10 -49 -23.5 -105.5 t-35 -111.5t-54 -107.5t-77.5 -95.5q-59 -53 -139 -82.5t-177 -29.5q-66 0 -129 19.5t-113.5 61.5t-81 108.5t-30.5 160.5zM340 352q0 -43 11 -69.5t29.5 -42t41 -21.5t43.5 -6q39 0 69.5 13.5t53.5 35.5q39 35 62.5 100.5t41.5 157.5q10 47 15.5 90t5.5 78q0 43 -11.5 69.5 t-30 42t-40 20.5t-41.5 5q-39 0 -70 -12t-53 -35q-39 -35 -62.5 -100.5t-42.5 -157.5q-10 -47 -16 -90t-6 -78z" />
<glyph unicode="&#xf1;" horiz-adv-x="1114" d="M35 0l213 1067h244l-19 -102q51 55 124 84.5t157 29.5q47 0 95 -16t88 -52t64.5 -91.5t24.5 -135.5q0 -29 -4 -60.5t-10 -57.5l-133 -666h-254l131 649q4 18 6 35.5t2 34.5q0 70 -39 101.5t-88 31.5q-29 0 -61.5 -8t-63.5 -30.5t-55.5 -62.5t-36.5 -104l-131 -647h-254z M363 1382q55 53 107.5 80t117.5 27q53 0 90 -13.5t68 -31.5t54.5 -26.5t53.5 -8.5q39 0 69 16.5t58 44.5l92 -120q-57 -53 -109 -80t-118 -27q-53 0 -90 13.5t-68 31.5t-54 26.5t-52 8.5q-41 0 -69.5 -17.5t-57.5 -45.5z" />
<glyph unicode="&#xf2;" horiz-adv-x="1054" d="M76 340q0 49 7 103.5t15 91.5q16 84 35 147t42.5 113.5t51 88.5t62.5 72q59 59 142 91t185 32q68 0 132.5 -20.5t114.5 -63.5t82 -109.5t32 -158.5q0 -49 -7 -103.5t-14 -88.5q-16 -84 -35.5 -148.5t-42 -115t-50 -89.5t-62.5 -71q-61 -59 -143 -91t-185 -32 q-68 0 -133 20.5t-115.5 63.5t-82 109.5t-31.5 158.5zM328 369q0 -78 37.5 -116t97.5 -38q41 0 73.5 14.5t57.5 38.5q39 37 64.5 101.5t43.5 165.5q14 68 18.5 107.5t4.5 55.5q0 78 -38 116t-97 38q-78 0 -131 -53q-39 -37 -63.5 -101.5t-45.5 -162.5q-14 -70 -18 -109 t-4 -57zM424 1573h242l92 -342h-187z" />
<glyph unicode="&#xf3;" horiz-adv-x="1054" d="M76 340q0 49 7 103.5t15 91.5q16 84 35 147t42.5 113.5t51 88.5t62.5 72q59 59 142 91t185 32q68 0 132.5 -20.5t114.5 -63.5t82 -109.5t32 -158.5q0 -49 -7 -103.5t-14 -88.5q-16 -84 -35.5 -148.5t-42 -115t-50 -89.5t-62.5 -71q-61 -59 -143 -91t-185 -32 q-68 0 -133 20.5t-115.5 63.5t-82 109.5t-31.5 158.5zM328 369q0 -78 37.5 -116t97.5 -38q41 0 73.5 14.5t57.5 38.5q39 37 64.5 101.5t43.5 165.5q14 68 18.5 107.5t4.5 55.5q0 78 -38 116t-97 38q-78 0 -131 -53q-39 -37 -63.5 -101.5t-45.5 -162.5q-14 -70 -18 -109 t-4 -57zM555 1231l227 342h244l-266 -342h-205z" />
<glyph unicode="&#xf4;" horiz-adv-x="1054" d="M76 340q0 49 7 103.5t15 91.5q16 84 35 147t42.5 113.5t51 88.5t62.5 72q59 59 142 91t185 32q68 0 132.5 -20.5t114.5 -63.5t82 -109.5t32 -158.5q0 -49 -7 -103.5t-14 -88.5q-16 -84 -35.5 -148.5t-42 -115t-50 -89.5t-62.5 -71q-61 -59 -143 -91t-185 -32 q-68 0 -133 20.5t-115.5 63.5t-82 109.5t-31.5 158.5zM305 1231l326 346h203l188 -346h-186l-123 192l-201 -192h-207zM328 369q0 -78 37.5 -116t97.5 -38q41 0 73.5 14.5t57.5 38.5q39 37 64.5 101.5t43.5 165.5q14 68 18.5 107.5t4.5 55.5q0 78 -38 116t-97 38 q-78 0 -131 -53q-39 -37 -63.5 -101.5t-45.5 -162.5q-14 -70 -18 -109t-4 -57z" />
<glyph unicode="&#xf5;" horiz-adv-x="1054" d="M76 340q0 49 7 103.5t15 91.5q16 84 35 147t42.5 113.5t51 88.5t62.5 72q59 59 142 91t185 32q68 0 132.5 -20.5t114.5 -63.5t82 -109.5t32 -158.5q0 -49 -7 -103.5t-14 -88.5q-16 -84 -35.5 -148.5t-42 -115t-50 -89.5t-62.5 -71q-61 -59 -143 -91t-185 -32 q-68 0 -133 20.5t-115.5 63.5t-82 109.5t-31.5 158.5zM328 369q0 -78 37.5 -116t97.5 -38q41 0 73.5 14.5t57.5 38.5q39 37 64.5 101.5t43.5 165.5q14 68 18.5 107.5t4.5 55.5q0 78 -38 116t-97 38q-78 0 -131 -53q-39 -37 -63.5 -101.5t-45.5 -162.5q-14 -70 -18 -109 t-4 -57zM334 1382q55 53 107.5 80t117.5 27q53 0 90 -13.5t68 -31.5t54.5 -26.5t53.5 -8.5q39 0 69 16.5t58 44.5l92 -120q-57 -53 -109 -80t-118 -27q-53 0 -90 13.5t-68 31.5t-54 26.5t-52 8.5q-41 0 -69.5 -17.5t-57.5 -45.5z" />
<glyph unicode="&#xf6;" horiz-adv-x="1054" d="M76 340q0 49 7 103.5t15 91.5q16 84 35 147t42.5 113.5t51 88.5t62.5 72q59 59 142 91t185 32q68 0 132.5 -20.5t114.5 -63.5t82 -109.5t32 -158.5q0 -49 -7 -103.5t-14 -88.5q-16 -84 -35.5 -148.5t-42 -115t-50 -89.5t-62.5 -71q-61 -59 -143 -91t-185 -32 q-68 0 -133 20.5t-115.5 63.5t-82 109.5t-31.5 158.5zM328 369q0 -78 37.5 -116t97.5 -38q41 0 73.5 14.5t57.5 38.5q39 37 64.5 101.5t43.5 165.5q14 68 18.5 107.5t4.5 55.5q0 78 -38 116t-97 38q-78 0 -131 -53q-39 -37 -63.5 -101.5t-45.5 -162.5q-14 -70 -18 -109 t-4 -57zM344 1235l49 250h217l-49 -250h-217zM772 1235l49 250h217l-49 -250h-217z" />
<glyph unicode="&#xf7;" d="M78 467l47 235h879l-48 -235h-878zM313 59l52 254h251l-49 -254h-254zM465 858l51 254h254l-51 -254h-254z" />
<glyph unicode="&#xf8;" horiz-adv-x="1058" d="M-16 -90l157 213q-31 41 -48 94t-17 123q0 49 7 103.5t15 91.5q16 84 35 147t42.5 113.5t51 88.5t62.5 72q59 59 142 91t185 32q53 0 107.5 -13t97.5 -40l99 127h155l-162 -211q29 -41 46.5 -95t17.5 -120q0 -49 -7 -103.5t-14 -88.5q-16 -84 -35.5 -148.5t-42 -115 t-50 -89.5t-62.5 -71q-61 -59 -143 -91t-185 -32q-53 0 -105 12t-100 39l-94 -129h-155zM328 342l354 477q-35 35 -92 35q-78 0 -131 -53q-39 -37 -64.5 -101.5t-44.5 -164.5q-14 -70 -18 -111t-4 -82zM377 242q39 -27 86 -27q41 0 73.5 14.5t57.5 38.5q39 37 64.5 101.5 t43.5 165.5q14 70 18.5 108.5t4.5 56.5v13z" />
<glyph unicode="&#xf9;" horiz-adv-x="1114" d="M90 285q0 31 5 60.5t9 55.5l134 666h254l-132 -649q-4 -16 -6 -34.5t-2 -35.5q0 -70 39 -101.5t88 -31.5q27 0 59.5 8t63.5 30.5t56.5 62.5t37.5 104l131 647h254l-213 -1067h-243l18 102q-51 -55 -122.5 -84.5t-155.5 -29.5q-47 0 -95.5 16t-88.5 52t-65.5 92.5 t-25.5 136.5zM438 1573h242l92 -342h-187z" />
<glyph unicode="&#xfa;" horiz-adv-x="1114" d="M90 285q0 31 5 60.5t9 55.5l134 666h254l-132 -649q-4 -16 -6 -34.5t-2 -35.5q0 -70 39 -101.5t88 -31.5q27 0 59.5 8t63.5 30.5t56.5 62.5t37.5 104l131 647h254l-213 -1067h-243l18 102q-51 -55 -122.5 -84.5t-155.5 -29.5q-47 0 -95.5 16t-88.5 52t-65.5 92.5 t-25.5 136.5zM569 1231l227 342h244l-266 -342h-205z" />
<glyph unicode="&#xfb;" horiz-adv-x="1114" d="M90 285q0 31 5 60.5t9 55.5l134 666h254l-132 -649q-4 -16 -6 -34.5t-2 -35.5q0 -70 39 -101.5t88 -31.5q27 0 59.5 8t63.5 30.5t56.5 62.5t37.5 104l131 647h254l-213 -1067h-243l18 102q-51 -55 -122.5 -84.5t-155.5 -29.5q-47 0 -95.5 16t-88.5 52t-65.5 92.5 t-25.5 136.5zM319 1231l326 346h203l188 -346h-186l-123 192l-201 -192h-207z" />
<glyph unicode="&#xfc;" horiz-adv-x="1114" d="M90 285q0 31 5 60.5t9 55.5l134 666h254l-132 -649q-4 -16 -6 -34.5t-2 -35.5q0 -70 39 -101.5t88 -31.5q27 0 59.5 8t63.5 30.5t56.5 62.5t37.5 104l131 647h254l-213 -1067h-243l18 102q-51 -55 -122.5 -84.5t-155.5 -29.5q-47 0 -95.5 16t-88.5 52t-65.5 92.5 t-25.5 136.5zM358 1235l49 250h217l-49 -250h-217zM786 1235l49 250h217l-49 -250h-217z" />
<glyph unicode="&#xfd;" horiz-adv-x="950" d="M-51 -391l47 229h57q55 0 86 26.5t60 84.5l67 127l-151 991h252l77 -688l342 688h269l-666 -1239q-18 -35 -40.5 -67.5t-47.5 -57.5q-51 -51 -112.5 -72.5t-141.5 -21.5h-98zM500 1231l227 342h244l-266 -342h-205z" />
<glyph unicode="&#xfe;" horiz-adv-x="1091" d="M-41 -391l369 1849h254l-97 -479q33 35 94.5 67.5t159.5 32.5q82 0 137.5 -27.5t89 -70.5t47 -95.5t13.5 -101.5q0 -16 -1 -36.5t-4 -50t-10 -68.5t-18 -94q-35 -168 -71.5 -274.5t-98.5 -168.5q-61 -61 -129.5 -82.5t-138.5 -21.5q-86 0 -147.5 28.5t-94.5 81.5 l-100 -489h-254zM375 362q0 -25 4 -50t17.5 -46.5t39 -36t66.5 -14.5q57 0 96 22.5t65.5 64.5t44 100.5t31.5 132.5q8 41 15.5 88t7.5 82q0 25 -4 50t-17.5 46.5t-39 36t-66.5 14.5q-57 0 -96 -22.5t-66 -63.5t-44 -99.5t-32 -131.5q-8 -41 -15 -89.5t-7 -83.5z" />
<glyph unicode="&#xff;" horiz-adv-x="950" d="M-51 -391l47 229h57q55 0 86 26.5t60 84.5l67 127l-151 991h252l77 -688l342 688h269l-666 -1239q-18 -35 -40.5 -67.5t-47.5 -57.5q-51 -51 -112.5 -72.5t-141.5 -21.5h-98zM287 1235l49 250h217l-49 -250h-217zM715 1235l49 250h217l-49 -250h-217z" />
<glyph unicode="&#x152;" horiz-adv-x="1880" d="M109 401q0 49 8 127t33 201q20 106 39.5 190.5t43 153t55 124.5t79.5 106q86 92 193.5 129.5t217.5 37.5q88 0 158 -31.5t108 -90.5l21 110h891l-47 -237h-637l-74 -367h549l-47 -238h-549l-76 -378h649l-47 -238h-891l19 98q-55 -59 -126 -84.5t-136 -25.5 q-102 0 -183 32.5t-136.5 89t-85 131t-29.5 160.5zM379 424q0 -98 56.5 -148.5t131.5 -50.5q115 0 195 88q20 23 37.5 52.5t35 76.5t35 117t37.5 170q18 92 29.5 172t11.5 133q0 98 -55 148.5t-133 50.5q-115 0 -195 -88q-20 -23 -37.5 -52.5t-35 -77.5t-35 -117t-37.5 -169 q-18 -92 -29.5 -172t-11.5 -133z" />
<glyph unicode="&#x153;" horiz-adv-x="1683" d="M76 340q0 49 7 103.5t15 91.5q16 84 35 147t42.5 113.5t51 88.5t62.5 72q59 59 142 91t185 32q82 0 158 -33.5t123 -105.5q129 139 332 139q84 0 153.5 -26.5t119.5 -76.5t78 -121t28 -157q0 -53 -9.5 -116.5t-23.5 -124.5h-639q-4 -18 -6 -42t-2 -34q0 -78 45 -128 t137 -50q78 0 138.5 27.5t115.5 80.5l133 -168q-84 -78 -189.5 -116.5t-226.5 -38.5q-90 0 -173 32.5t-136 108.5q-70 -76 -157 -108.5t-177 -32.5q-68 0 -133 20.5t-115.5 63.5t-82 109.5t-31.5 158.5zM328 369q0 -78 37.5 -116t97.5 -38q41 0 73.5 14.5t57.5 38.5 q39 37 64.5 101.5t43.5 165.5q14 70 18.5 108.5t4.5 56.5q0 78 -38 116t-97 38q-78 0 -131 -53q-39 -37 -64.5 -101.5t-44.5 -164.5q-14 -70 -18 -109t-4 -57zM969 627h391q6 32 6 71q0 86 -42 129t-110 43q-82 0 -146 -56t-99 -187z" />
<glyph unicode="&#x178;" horiz-adv-x="1126" d="M182 1458h287l156 -604l376 604h299l-585 -870l-119 -588h-270l120 598zM424 1597l49 250h217l-49 -250h-217zM852 1597l49 250h217l-49 -250h-217z" />
<glyph unicode="&#x2c6;" horiz-adv-x="1052" d="M305 1231l326 346h203l188 -346h-186l-123 192l-201 -192h-207z" />
<glyph unicode="&#x2dc;" horiz-adv-x="1052" d="M334 1382q55 53 107.5 80t117.5 27q53 0 90 -13.5t68 -31.5t54.5 -26.5t53.5 -8.5q39 0 69 16.5t58 44.5l92 -120q-57 -53 -109 -80t-118 -27q-53 0 -90 13.5t-68 31.5t-54 26.5t-52 8.5q-41 0 -69.5 -17.5t-57.5 -45.5z" />
<glyph unicode="&#x2000;" horiz-adv-x="1029" />
<glyph unicode="&#x2001;" horiz-adv-x="2058" />
<glyph unicode="&#x2002;" horiz-adv-x="1029" />
<glyph unicode="&#x2003;" horiz-adv-x="2058" />
<glyph unicode="&#x2004;" horiz-adv-x="686" />
<glyph unicode="&#x2005;" horiz-adv-x="514" />
<glyph unicode="&#x2006;" horiz-adv-x="343" />
<glyph unicode="&#x2007;" horiz-adv-x="343" />
<glyph unicode="&#x2008;" horiz-adv-x="257" />
<glyph unicode="&#x2009;" horiz-adv-x="411" />
<glyph unicode="&#x200a;" horiz-adv-x="114" />
<glyph unicode="&#x2010;" horiz-adv-x="829" d="M104 467l48 235h600l-47 -235h-601z" />
<glyph unicode="&#x2011;" horiz-adv-x="829" d="M104 467l48 235h600l-47 -235h-601z" />
<glyph unicode="&#x2012;" horiz-adv-x="829" d="M104 467l48 235h600l-47 -235h-601z" />
<glyph unicode="&#x2013;" d="M86 467l47 235h860l-47 -235h-860z" />
<glyph unicode="&#x2014;" horiz-adv-x="1994" d="M102 467l48 235h1767l-47 -235h-1768z" />
<glyph unicode="&#x2018;" horiz-adv-x="528" d="M270 1206l49 252l308 215l-92 -467h-265z" />
<glyph unicode="&#x2019;" horiz-adv-x="528" d="M227 991l92 467h265l-49 -254z" />
<glyph unicode="&#x201a;" horiz-adv-x="528" d="M-12 -213l92 467h264l-51 -254z" />
<glyph unicode="&#x201c;" horiz-adv-x="937" d="M270 1206l49 252l308 215l-95 -467h-262zM680 1206l49 252l307 215l-94 -467h-262z" />
<glyph unicode="&#x201d;" horiz-adv-x="937" d="M227 991l92 467h265l-52 -254zM637 991l92 467h264l-51 -254z" />
<glyph unicode="&#x201e;" horiz-adv-x="937" d="M-12 -213l92 467h262l-49 -254zM395 -213l92 467h267l-52 -254z" />
<glyph unicode="&#x2022;" horiz-adv-x="960" d="M197 684q0 70 23.5 127t65.5 99t99 65.5t127 23.5t127 -23.5t99 -65.5t65.5 -99t23.5 -127t-23.5 -127t-65.5 -99t-99 -65.5t-127 -23.5t-127 23.5t-99 65.5t-65.5 99t-23.5 127z" />
<glyph unicode="&#x2026;" horiz-adv-x="1646" d="M29 0l57 279h272l-53 -279h-276zM582 0l55 279h276l-57 -279h-274zM1135 0l57 279h272l-53 -279h-276z" />
<glyph unicode="&#x202f;" horiz-adv-x="411" />
<glyph unicode="&#x2039;" horiz-adv-x="681" d="M74 565l588 502l-68 -328l-227 -196l149 -197l-55 -291z" />
<glyph unicode="&#x203a;" horiz-adv-x="681" d="M37 55l65 328l228 197l-150 198l58 289l387 -508z" />
<glyph unicode="&#x205f;" horiz-adv-x="514" />
<glyph unicode="&#x20ac;" horiz-adv-x="1331" d="M66 496l30 159h133l31 154h-131l31 160h137q29 113 64.5 191.5t101.5 144.5q82 84 188.5 124.5t216.5 40.5q113 0 197 -34.5t139.5 -96t82 -143.5t26.5 -176h-271q-2 90 -45 151.5t-143 61.5q-59 0 -106.5 -21.5t-88.5 -62.5q-29 -31 -50 -73t-38 -107h293l-33 -160h-301 l-30 -154h301l-33 -159h-291q-4 -20 -5 -42t-1 -32q0 -94 55.5 -145.5t141.5 -51.5q53 0 96 18.5t76.5 48.5t57.5 67.5t40 78.5h276q-74 -227 -224 -338.5t-343 -111.5q-104 0 -188 31.5t-141.5 88t-88 132t-30.5 161.5q0 23 2 44.5t6 50.5h-141z" />
<glyph unicode="&#x2122;" horiz-adv-x="1798" d="M240 1292l32 166h611l-31 -166h-211l-143 -708h-183l142 708h-217zM842 584l172 874h182l143 -467l334 467h189l-172 -874h-189l105 518l-217 -314h-162l-94 318l-107 -522h-184z" />
<glyph unicode="&#x25fc;" horiz-adv-x="1064" d="M0 0v1065h1065v-1065h-1065z" />
</font>
</defs>
</svg>
